<svg xmlns="http://www.w3.org/2000/svg" width="20" height="20" viewBox="0 0 20 20">
  <path id="icon-expand" d="M14,17.225,18.325,12.9,17.25,11.85,14,15.1l-3.25-3.25L9.675,12.9ZM14,24a9.676,9.676,0,0,1-3.875-.788,10.075,10.075,0,0,1-5.338-5.337,9.989,9.989,0,0,1,0-7.775,9.994,9.994,0,0,1,2.15-3.175,10.251,10.251,0,0,1,3.188-2.137,9.989,9.989,0,0,1,7.775,0A9.984,9.984,0,0,1,23.212,10.1a9.989,9.989,0,0,1,0,7.775,10.251,10.251,0,0,1-2.138,3.188,9.994,9.994,0,0,1-3.175,2.15A9.738,9.738,0,0,1,14,24Zm0-1.5a8.179,8.179,0,0,0,6.025-2.487A8.212,8.212,0,0,0,22.5,14a8.2,8.2,0,0,0-2.475-6.025A8.2,8.2,0,0,0,14,5.5,8.212,8.212,0,0,0,7.988,7.975,8.179,8.179,0,0,0,5.5,14a8.191,8.191,0,0,0,2.488,6.013A8.191,8.191,0,0,0,14,22.5ZM14,14Z" transform="translate(-4 -4)" fill="#0066a4"/>
</svg>
