<svg id="icon-oe6" xmlns="http://www.w3.org/2000/svg" width="100" height="85.911" viewBox="0 0 100 85.911">
  <g id="Group_349" data-name="Group 349">
    <path id="Path_925" data-name="Path 925" d="M79.505,32.64a27.093,27.093,0,0,1,17.488,6.42A26.6,26.6,0,0,0,92.152,7.894,26.31,26.31,0,0,0,73.295,0,27.056,27.056,0,0,0,54.333,7.789L49.91,12.22l-4.422-4.43A26.634,26.634,0,0,0,26.631,0,27.138,27.138,0,0,0,7.25,8.208C-2.86,18.737-2.232,35.588,8.1,45.915L46.745,84.564a4.374,4.374,0,0,0,6.315,0l6.428-6.42A27.136,27.136,0,0,1,79.5,32.64" transform="translate(0.001)" fill="#fff"/>
    <path id="Path_926" data-name="Path 926" d="M93.5,48.34a20.7,20.7,0,1,0,20.646,20.75A20.727,20.727,0,0,0,93.5,48.34m11.487,24.126H96.98v8H90.133v-8H82.022V65.619h8.007V57.612h6.839v8.007h8.007v6.847Z" transform="translate(-14.147 -9.401)" fill="#fff"/>
  </g>
</svg>
