<svg id="icon-oe10" xmlns="http://www.w3.org/2000/svg" width="99.917" height="100" viewBox="0 0 99.917 100">
  <path id="Path_941" data-name="Path 941" d="M92.581,23.98A7.44,7.44,0,0,0,91.1,15.605L84.34,8.865a7.374,7.374,0,0,0-5.249-2.178h0a7.429,7.429,0,0,0-3.086.671,49.826,49.826,0,0,0-52.37.166,7.426,7.426,0,0,0-8.659,1.334L8.221,15.613a7.445,7.445,0,0,0-1.216,8.9,49.954,49.954,0,0,0,.189,51.273,7.444,7.444,0,0,0,1.026,9.219l6.748,6.756a7.422,7.422,0,0,0,9.18,1.042,49.849,49.849,0,0,0,43.514,3.946A21.051,21.051,0,0,0,96.677,67.691,49.841,49.841,0,0,0,92.6,24m.789,39.67a21.028,21.028,0,0,0-14.539-5.841c-.118,0-.237.016-.355.016a29.431,29.431,0,0,0-.845-18.256L89.6,27.634a45.379,45.379,0,0,1,3.781,36.039M58.436,73.7A25.17,25.17,0,0,1,26.7,40.4l.055-.118a25.178,25.178,0,0,1,46.205-.458l.055.134A25.063,25.063,0,0,1,73.622,58.5,21.116,21.116,0,0,0,58.436,73.682M72.327,10.364l-1.642,1.65a2.221,2.221,0,1,0,3.141,3.141l3.212-3.212a2.949,2.949,0,0,1,2.052-.821,3.034,3.034,0,0,1,2.123.884l6.756,6.741a2.992,2.992,0,0,1,0,4.215h-.008L75.635,35.3A29.66,29.66,0,0,0,64.671,24.319l5.138-5.138a2.221,2.221,0,1,0-3.141-3.141L60.4,22.3A29.616,29.616,0,0,0,49.951,20.4a30.14,30.14,0,0,0-10.877,2.068L27.187,10.578a45.39,45.39,0,0,1,45.148-.213M11.346,18.747,18.1,12a2.975,2.975,0,0,1,4.2-.016l12.55,12.55a30.225,30.225,0,0,0-5.825,4.538,29.907,29.907,0,0,0-4.98,6.6L11.307,22.93a2.985,2.985,0,0,1,.039-4.183M10.091,28,22.081,39.987A29.58,29.58,0,0,0,20.352,50a30.164,30.164,0,0,0,1.9,10.45L10.328,72.38A45.526,45.526,0,0,1,10.1,28M27.558,89.649l1.871-1.871a2.221,2.221,0,1,0-3.141-3.141l-3.97,3.978a2.977,2.977,0,0,1-4.207,0l-6.756-6.756a2.985,2.985,0,0,1-.039-4.183l.087-.087.1-.1L24.275,64.715a29.951,29.951,0,0,0,4.759,6.212,29.618,29.618,0,0,0,6.212,4.759L30.6,80.336a2.22,2.22,0,0,0,0,3.141,2.191,2.191,0,0,0,1.571.647,2.224,2.224,0,0,0,1.571-.647l5.778-5.77a29.39,29.39,0,0,0,18.264.845c0,.118-.016.229-.016.339a20.967,20.967,0,0,0,5.864,14.555,45.513,45.513,0,0,1-36.055-3.789m51.281,5.888A16.646,16.646,0,1,1,95.5,78.9,16.669,16.669,0,0,1,78.855,95.545" transform="translate(-0.02 -0.005)" fill="#fff"/>
</svg>
