<svg xmlns="http://www.w3.org/2000/svg" width="20" height="20" viewBox="0 0 20 20">
  <path id="icon-info" d="M11,17h2V11H11Zm1-8a.984.984,0,1,0-.712-.288A.968.968,0,0,0,12,9Zm0,13a9.732,9.732,0,0,1-3.9-.788A9.978,9.978,0,0,1,2.788,15.9,9.732,9.732,0,0,1,2,12a9.732,9.732,0,0,1,.788-3.9A9.984,9.984,0,0,1,8.1,2.787,9.743,9.743,0,0,1,12,2a9.743,9.743,0,0,1,3.9.787A9.984,9.984,0,0,1,21.212,8.1,9.732,9.732,0,0,1,22,12a9.732,9.732,0,0,1-.788,3.9A9.978,9.978,0,0,1,15.9,21.212,9.732,9.732,0,0,1,12,22Zm0-2a7.721,7.721,0,0,0,5.675-2.325A7.721,7.721,0,0,0,20,12a7.721,7.721,0,0,0-2.325-5.675A7.721,7.721,0,0,0,12,4,7.721,7.721,0,0,0,6.325,6.325,7.721,7.721,0,0,0,4,12a7.721,7.721,0,0,0,2.325,5.675A7.721,7.721,0,0,0,12,20ZM12,12Z" transform="translate(-2 -2)" fill="#7e7e7e"/>
</svg>
