<svg id="icon-oe4" xmlns="http://www.w3.org/2000/svg" width="99.992" height="100" viewBox="0 0 99.992 100">
  <g id="Group_348" data-name="Group 348">
    <path id="Path_923" data-name="Path 923" d="M34.591,53.143H45.564l4.514,4.507a1.635,1.635,0,0,0,1.176.49h25a5,5,0,0,0,5-4.989,4.932,4.932,0,0,0-1.3-3.331,4.926,4.926,0,0,0,0-6.677,4.906,4.906,0,0,0-.015-6.677,4.761,4.761,0,0,0,1.244-2.495,5,5,0,0,0-4.929-5.818H65.226l.927-2.8a1.794,1.794,0,0,0,.083-.528V17.911A6.417,6.417,0,0,0,53.65,16.14l-2.193,7.687-5.773,4.326H34.576a1.661,1.661,0,0,0-1.666,1.666V51.485a1.672,1.672,0,0,0,1.666,1.673m19.331-27a1.622,1.622,0,0,0,.6-.874l2.344-8.215a3.081,3.081,0,0,1,6.044.844v6.64L61.315,29.3a1.662,1.662,0,0,0,.226,1.5,1.685,1.685,0,0,0,1.357.693H76.229a1.663,1.663,0,0,1,1.635,1.952,1.81,1.81,0,0,1-1.824,1.379h-9.82v3.331h10a1.669,1.669,0,0,1,0,3.339h-10v3.331h10a1.669,1.669,0,0,1,0,3.339h-10v3.331h10a1.666,1.666,0,1,1,0,3.331H51.909l-4.024-4.017V30.67l6-4.5ZM36.241,31.492h8.335V49.827H36.241Z" transform="translate(-8.108 -2.831)" fill="#fff"/>
    <path id="Path_924" data-name="Path 924" d="M98.327,86.661H87.889a8.116,8.116,0,0,0,.716-3.331,8.358,8.358,0,0,0-7.793-8.32,11.7,11.7,0,0,0-5.494-5.524A39.987,39.987,0,1,0,8.335,40a39.6,39.6,0,0,0,9.85,26.219,44.952,44.952,0,0,0-9.277-2.856,1.631,1.631,0,0,0-1.274.3,1.666,1.666,0,0,0-.663,1.13c-.06.43-1.326,10.687,1.884,16.06a24.827,24.827,0,0,0,4.891,5.811H1.666A1.673,1.673,0,0,0,0,88.334,11.68,11.68,0,0,0,11.666,100h76.66A11.675,11.675,0,0,0,99.992,88.334a1.677,1.677,0,0,0-1.666-1.673M78.145,77.27a1.677,1.677,0,0,0,1.7,1.115l.43-.053a5,5,0,0,1,5,5,4.846,4.846,0,0,1-1.311,3.331H76.336a1.371,1.371,0,0,0-.965,0H68.528l-.015-.09c-.023-.234-.06-.452-.09-.671-.045-.332-.09-.671-.151-.995-.053-.286-.121-.565-.188-.852-.068-.249-.121-.5-.2-.761-.09-.309-.181-.6-.286-.9-.075-.219-.151-.437-.234-.656-.121-.3-.249-.61-.384-.912-.09-.2-.181-.384-.271-.573-.158-.309-.309-.61-.475-.919-.1-.166-.2-.324-.3-.49-.188-.309-.377-.618-.58-.912-.075-.121-.166-.226-.249-.339a18.778,18.778,0,0,0-1.794-2.133v-.015l.1-.121a8.213,8.213,0,0,1,.58-.769c.083-.1.181-.188.271-.279.158-.173.332-.347.5-.5l.339-.271c.173-.143.354-.279.535-.407.128-.083.256-.158.384-.241.188-.113.384-.219.58-.317.136-.068.264-.128.407-.188a5.777,5.777,0,0,1,.633-.241q.2-.079.407-.136c.241-.06.482-.113.731-.166.121-.015.241-.045.362-.068a7.982,7.982,0,0,1,1.13-.083,8.661,8.661,0,0,1,1.409.128,8.344,8.344,0,0,1,6.459,5.471m-50.916,9.39a5.165,5.165,0,0,1-.392-.414c-.143-.173-.286-.339-.43-.512-.188-.241-.362-.5-.543-.761-.143-.219-.294-.437-.437-.656-.158-.271-.317-.558-.467-.829-.136-.264-.279-.512-.414-.784-.143-.294-.271-.588-.407-.9-.128-.286-.256-.573-.377-.859-.128-.317-.241-.648-.354-.965-.106-.3-.219-.6-.317-.9-.113-.347-.2-.708-.294-1.055-.075-.3-.166-.58-.241-.889-.09-.415-.166-.814-.241-1.228-.045-.249-.106-.482-.143-.731-.1-.663-.173-1.311-.211-1.952a8.978,8.978,0,0,1,.045-1.605V71.6a15.663,15.663,0,0,1,.324-1.846V69.7c.151-.633.347-1.266.558-1.9l.045-.09a42.428,42.428,0,0,1,4.379-8.6,43.861,43.861,0,0,1,4.055,4.047c.113.121.219.249.332.369l.045.045c2.69,3.165,5.283,7.288,5.223,11.365,0,.279-.015.55-.038.829-.241.256-.46.52-.678.784l-.121.136a18.079,18.079,0,0,0-2.7,4.446l-.06.151c-.2.467-.369.935-.52,1.417-.038.121-.075.234-.106.354-.128.422-.234.844-.332,1.281-.03.151-.068.3-.1.46-.083.43-.143.874-.2,1.319-.015.136-.038.264-.045.407l-.015.121h-4.8Zm8.23-.55c.045-.271.075-.558.136-.837l.03-.106a14.782,14.782,0,0,1,1.937-4.763c.038-.068.075-.128.113-.188.181-.286.384-.558.58-.829.083-.113.158-.226.241-.332.188-.241.384-.46.588-.686.09-.106.181-.2.279-.309h0a14.8,14.8,0,0,1,1.108-1.07l.09-.068a12.329,12.329,0,0,1,1.017-.791q.181-.136.362-.249c.264-.181.528-.347.8-.5.181-.106.354-.211.543-.309.226-.121.445-.226.671-.332s.437-.2.656-.294.43-.166.641-.241c.241-.083.482-.173.723-.249.226-.068.452-.121.678-.181.241-.06.475-.121.716-.173.271-.045.558-.083.837-.128.2-.015.4-.053.6-.075a13.8,13.8,0,0,1,1.485-.068c.467,0,.927.023,1.372.06.3.03.6.075.9.128a2.9,2.9,0,0,1,.437.06c.377.068.754.151,1.123.256l.166.045c.407.113.806.249,1.206.392l.06.023a11.927,11.927,0,0,1,1.2.512h.03c.392.2.776.407,1.153.626l.023.015c.369.226.739.46,1.093.716l.038.023a12.658,12.658,0,0,1,1.017.814l.045.03A15.313,15.313,0,0,1,62.3,79.35l.083.113c.271.377.528.761.761,1.146.045.083.1.166.143.241.2.369.407.731.58,1.115.045.09.09.181.128.279.173.384.324.776.467,1.176.03.09.06.173.09.256a13.391,13.391,0,0,1,.362,1.334l.038.151a14.165,14.165,0,0,1,.241,1.485h-29.8c.023-.181.053-.354.083-.535M48.331,3.339A36.654,36.654,0,0,1,71.505,68.4c-.211-.023-.415-.015-.633-.023-.2-.015-.392-.045-.588-.045l-.158.015a11.241,11.241,0,0,0-1.341.09l-.2.023A11.529,11.529,0,0,0,61.6,72.229c-.113.128-.219.279-.339.422-.173.219-.354.415-.52.648l-.038-.023c-.249-.173-.512-.332-.769-.5-.188-.113-.377-.234-.565-.339-.264-.151-.528-.294-.8-.43-.2-.106-.407-.2-.6-.294-.271-.128-.543-.256-.821-.369-.241-.1-.5-.188-.739-.271-.415-.143-.821-.279-1.251-.4-.3-.083-.61-.158-.919-.234-.226-.053-.452-.09-.678-.136l-1.032-.158c-.2-.023-.384-.053-.58-.068-.543-.053-1.1-.083-1.658-.083s-1.13.03-1.688.083c-.143.015-.286.03-.422.053-.467.053-.942.121-1.394.211l-.264.045a17.916,17.916,0,0,0-3.256,1.01c-.075.03-.143.06-.226.09-.46.2-.912.422-1.349.656l-.188.1c-.452.256-.9.52-1.334.814a13.658,13.658,0,0,0-.339-1.741c-.015-.068-.045-.136-.06-.2-.143-.528-.3-1.032-.49-1.545-.075-.2-.166-.4-.249-.6-.151-.377-.3-.739-.475-1.093-.113-.234-.234-.452-.347-.671q-.249-.486-.52-.972c-.136-.219-.271-.445-.415-.686-.181-.294-.362-.588-.558-.882-.151-.219-.3-.445-.467-.671-.2-.271-.384-.543-.58-.806-.166-.219-.332-.422-.49-.633-.2-.256-.4-.5-.6-.746-.173-.2-.339-.4-.5-.6-.2-.234-.4-.452-.6-.678-.173-.188-.332-.369-.5-.55-.2-.211-.392-.415-.58-.618-.166-.166-.332-.339-.49-.5-.188-.188-.362-.362-.543-.535-.158-.158-.309-.3-.46-.445-.173-.166-.332-.309-.5-.46-.143-.136-.279-.264-.414-.384-.158-.136-.294-.256-.43-.369-.121-.113-.241-.219-.347-.309-.136-.121-.241-.2-.362-.3l-.264-.219c-.113-.09-.188-.151-.271-.219l-.158-.128c-.106-.083-.181-.136-.211-.158a1.713,1.713,0,0,0-1.244-.332h0a1.4,1.4,0,0,0-.279.106,1.582,1.582,0,0,0-.347.121v.015a1.559,1.559,0,0,0-.482.43,50.577,50.577,0,0,0-4.055,6.768l-.015.045c-.241.49-.482,1-.716,1.515l-.053.113A36.642,36.642,0,0,1,48.346,3.331M11.712,79.147c-1.794-3-1.839-8.727-1.613-12.126a38.831,38.831,0,0,1,8.72,3.2l-.015.128c-.068.422-.113.837-.151,1.259-.008.113-.03.226-.038.332a11.177,11.177,0,0,0,0,1.507c.045.693.128,1.4.234,2.1.038.211.068.422.106.626.09.512.2,1.032.317,1.552.053.211.1.415.151.626q.237.972.543,1.9l.053.166c.226.693.475,1.349.746,2,.075.188.158.362.241.55.211.467.422.919.648,1.364.1.2.2.392.294.573.256.482.52.935.8,1.379.068.106.128.226.2.332l.038.053H19.293a23.282,23.282,0,0,1-7.574-7.514M88.334,96.676H11.666A8.358,8.358,0,0,1,3.5,90.014H96.488a8.343,8.343,0,0,1-8.162,6.662" fill="#fff"/>
  </g>
</svg>
