<svg xmlns="http://www.w3.org/2000/svg" width="25" height="25.003" viewBox="0 0 25 25.003">
  <g id="icon-editor-gravar" transform="translate(-75.602 -5.521)">
    <path id="Path_986" data-name="Path 986" d="M98.51,30.524H77.694A2.1,2.1,0,0,1,75.6,28.432V7.616a2.1,2.1,0,0,1,2.092-2.092H93.306a.924.924,0,0,1,.791.306l6.148,6.148a1.055,1.055,0,0,1,.306.842h.051V28.458a2.1,2.1,0,0,1-2.092,2.066ZM82.9,28.432H93.306v-7.27H82.9ZM91.24,7.616H84.99v6.25h6.25ZM98.51,13.3l-5.2-5.2v5.765a2.1,2.1,0,0,1-2.092,2.092H84.99A2.1,2.1,0,0,1,82.9,13.866V7.616h-5.2V28.458h3.112v-7.3A2.1,2.1,0,0,1,82.9,19.07H93.306A2.1,2.1,0,0,1,95.4,21.162v7.3h3.138V13.3Z" transform="translate(0 0)" fill="#0066a4"/>
  </g>
</svg>
