<svg id="icon-oe5" xmlns="http://www.w3.org/2000/svg" width="85.054" height="100" viewBox="0 0 85.054 100">
  <path id="Path_922" data-name="Path 922" d="M61.231,19.242a8.556,8.556,0,0,0-14.8,0L26.824,53.217a31.233,31.233,0,1,0,54.025,0L61.239,19.242ZM74.917,80.989A24.362,24.362,0,0,1,32.739,56.631L52.357,22.624a1.714,1.714,0,0,1,2.958,0l19.61,34.007a24.14,24.14,0,0,1,0,24.358h-.008ZM22.97,6.843a1.656,1.656,0,0,0-1.479.847L9.037,29.267A15.8,15.8,0,0,0,7.558,41.89a16.2,16.2,0,0,0,8.314,9.857,3.423,3.423,0,0,1-1.5,6.5,3.336,3.336,0,0,1-1.511-.36A23.072,23.072,0,0,1,1.01,43.88a22.614,22.614,0,0,1,2.1-18.059L15.568,4.269a8.553,8.553,0,0,1,14.8,0l7.371,12.783a3.431,3.431,0,0,1-5.916,3.477L24.449,7.746a1.646,1.646,0,0,0-1.487-.9M70.336,68.31A16.958,16.958,0,0,1,53.388,85.266a3.422,3.422,0,1,1,0-6.843A10.114,10.114,0,0,0,63.5,68.31a3.423,3.423,0,0,1,6.835,0" transform="translate(-0.016 0)" fill="#fff"/>
</svg>
