<svg xmlns="http://www.w3.org/2000/svg" width="44" height="44" viewBox="0 0 44 44">
  <g id="icon-dadosindicadores-lg" transform="translate(-78.75 -8.75)">
    <path id="Path_907" data-name="Path 907" d="M85.563,295.75H80.169a1.422,1.422,0,0,0-1.419,1.419V315.2a1.422,1.422,0,0,0,1.419,1.419h5.394a1.422,1.422,0,0,0,1.419-1.419V297.027A1.4,1.4,0,0,0,85.563,295.75Z" transform="translate(0 -263.865)" fill="#fff"/>
    <path id="Path_908" data-name="Path 908" d="M232.563,224h-5.394a1.422,1.422,0,0,0-1.419,1.419v23.845a1.422,1.422,0,0,0,1.419,1.419h5.394a1.422,1.422,0,0,0,1.419-1.419V225.419A1.422,1.422,0,0,0,232.563,224Z" transform="translate(-135.077 -197.934)" fill="#fff"/>
    <path id="Path_909" data-name="Path 909" d="M379.563,131.25h-5.394a1.422,1.422,0,0,0-1.419,1.419v31.368a1.422,1.422,0,0,0,1.419,1.419h5.394a1.422,1.422,0,0,0,1.419-1.419V132.669A1.341,1.341,0,0,0,379.563,131.25Z" transform="translate(-270.155 -112.706)" fill="#fff"/>
    <path id="Path_910" data-name="Path 910" d="M526.563,8.75h-5.394a1.42,1.42,0,0,0-1.419,1.415v41.17a1.42,1.42,0,0,0,1.419,1.415h5.394a1.42,1.42,0,0,0,1.419-1.415V10.165A1.339,1.339,0,0,0,526.563,8.75Z" transform="translate(-405.232)" fill="#fff"/>
  </g>
</svg>
