<svg xmlns="http://www.w3.org/2000/svg" width="18.336" height="25.003" viewBox="0 0 18.336 25.003">
  <g id="icon-editor-exportar" transform="translate(-157.503 -17.496)">
    <path id="Path_987" data-name="Path 987" d="M175.6,22.738l-5-5A.834.834,0,0,0,170,17.5H159.8a2.309,2.309,0,0,0-2.3,2.3V40.2a2.309,2.309,0,0,0,2.3,2.3h13.735a2.309,2.309,0,0,0,2.3-2.3V23.33a.834.834,0,0,0-.242-.592Zm-4.759-2.4L173,22.5h-2.159Zm2.7,20.494H159.8a.633.633,0,0,1-.633-.633V19.8a.633.633,0,0,1,.633-.633h9.368v4.167a.833.833,0,0,0,.833.833h4.167V40.2a.633.633,0,0,1-.633.633Z" transform="translate(0 0)" fill="#0066a4"/>
    <path id="Path_988" data-name="Path 988" d="M267.194,192.641a.834.834,0,0,0-1.184,0l-3.334,3.334a.837.837,0,0,0,1.184,1.184l1.909-1.917v6.326a.833.833,0,1,0,1.667,0v-6.326l1.909,1.917a.837.837,0,1,0,1.184-1.184Z" transform="translate(-99.932 -166.569)" fill="#0066a4"/>
  </g>
</svg>
