<svg id="icon-oe9" xmlns="http://www.w3.org/2000/svg" width="92.581" height="100" viewBox="0 0 92.581 100">
  <g id="Group_352" data-name="Group 352">
    <path id="Path_935" data-name="Path 935" d="M58.56,14.427V26.039a2.3,2.3,0,0,0,4.6,0V14.427a7.394,7.394,0,0,0,5.227-7,7.426,7.426,0,0,0-14.852,0,7.124,7.124,0,0,0,5.014,7m2.3-9.933A2.993,2.993,0,0,1,63.78,7.426a2.929,2.929,0,0,1-5.857,0,3,3,0,0,1,2.932-2.932" transform="translate(-14.289)" fill="#fff"/>
    <path id="Path_936" data-name="Path 936" d="M23.563,31.357a6.829,6.829,0,0,0,3.343-.843l8.262,8.262a2.315,2.315,0,0,0,1.569.63,2.122,2.122,0,0,0,1.561-.63,2.277,2.277,0,0,0,0-3.138l-8.262-8.262a7.575,7.575,0,0,0,.836-3.35,7.427,7.427,0,1,0-7.324,7.324m0-10.351a2.929,2.929,0,1,1-2.925,2.932A2.995,2.995,0,0,1,23.549,21" transform="translate(-4.276 -4.431)" fill="#fff"/>
    <path id="Path_937" data-name="Path 937" d="M82.271,38.872a2.111,2.111,0,0,0,1.561-.63L92.1,29.979A7.394,7.394,0,1,0,88.011,23.4a6.829,6.829,0,0,0,.843,3.343L80.7,35a2.277,2.277,0,0,0,0,3.138,1.894,1.894,0,0,0,1.569.733M95.451,20.464A2.929,2.929,0,1,1,92.519,23.4a2.988,2.988,0,0,1,2.932-2.932" transform="translate(-21.373 -4.263)" fill="#fff"/>
    <path id="Path_938" data-name="Path 938" d="M26.039,62.421a2.3,2.3,0,1,0,0-4.6H14.427A7.41,7.41,0,0,0,7.419,52.59a7.426,7.426,0,0,0,0,14.852,7.308,7.308,0,0,0,7.008-5.227H26.039Zm-18.62.63a2.929,2.929,0,0,1,0-5.857,3,3,0,0,1,2.932,2.925,2.922,2.922,0,0,1-2.932,2.932" transform="translate(0 -14.037)" fill="#fff"/>
    <path id="Path_939" data-name="Path 939" d="M108.555,53.23a7.308,7.308,0,0,0-7.008,5.227h-11.6a2.3,2.3,0,0,0,0,4.6h11.6a7.373,7.373,0,0,0,14.427-2.2,7.632,7.632,0,0,0-7.419-7.631m0,10.351a2.929,2.929,0,1,1,2.925-2.932,2.858,2.858,0,0,1-2.925,2.932" transform="translate(-23.393 -14.208)" fill="#fff"/>
    <path id="Path_940" data-name="Path 940" d="M86.585,82.565a7.277,7.277,0,0,0-3.973,1.048,7.648,7.648,0,0,0-6.906-4.391,8.3,8.3,0,0,0-3.973,1.048,6.933,6.933,0,0,0-1.466-2.1,7.573,7.573,0,0,0-5.439-2.3,6.3,6.3,0,0,0-3.138.63l.1-15.791A7.526,7.526,0,0,0,59.6,55.272a7.615,7.615,0,0,0-5.439-2.3,7.91,7.91,0,0,0-7.741,7.639l-.205,36.082L41.933,92.4a7.755,7.755,0,0,0-9.831-.946,7.8,7.8,0,0,0-1.679,11.392l8.262,9.831a2.23,2.23,0,1,0,3.453-2.822l-8.159-9.831a3.2,3.2,0,0,1,.63-4.706,3.184,3.184,0,0,1,4.076.418l5.96,5.96a3.349,3.349,0,0,0,3.871.733,3.406,3.406,0,0,0,2.2-3.24l.205-38.384a3.15,3.15,0,0,1,3.138-3.138,2.876,2.876,0,0,1,2.2.938A3.735,3.735,0,0,1,57.408,60.8l-.1,22.8v3.665a2.307,2.307,0,0,0,2.2,2.3,2.369,2.369,0,0,0,2.295-2.2V83.708a3.206,3.206,0,0,1,3.138-3.13,2.84,2.84,0,0,1,2.2.938,2.993,2.993,0,0,1,.938,2.192v6.906a2.306,2.306,0,0,0,2.192,2.3,2.394,2.394,0,0,0,2.309-2.2V87.161a3.134,3.134,0,1,1,6.268,0v6.8a2.3,2.3,0,0,0,2.192,2.3,2.37,2.37,0,0,0,2.3-2.2V90.511a3.141,3.141,0,1,1,6.283,0l-.11,21.333a2.3,2.3,0,0,0,2.192,2.295,2.375,2.375,0,0,0,2.3-2.2L94.209,90.3a7.626,7.626,0,0,0-7.631-7.741" transform="translate(-7.654 -14.139)" fill="#fff"/>
  </g>
</svg>
