<svg xmlns="http://www.w3.org/2000/svg" width="22" height="12" viewBox="0 0 22 12">
  <path id="icon-password" d="M2,19V17H22v2Zm1.15-6.05-1.3-.75.85-1.5H1V9.2H2.7L1.85,7.75,3.15,7,4,8.45,4.85,7l1.3.75L5.3,9.2H7v1.5H5.3l.85,1.5-1.3.75L4,11.45Zm8,0-1.3-.75.85-1.5H9V9.2h1.7L9.85,7.75,11.15,7,12,8.45,12.85,7l1.3.75L13.3,9.2H15v1.5H13.3l.85,1.5-1.3.75L12,11.45Zm8,0-1.3-.75.85-1.5H17V9.2h1.7l-.85-1.45L19.15,7,20,8.45,20.85,7l1.3.75L21.3,9.2H23v1.5H21.3l.85,1.5-1.3.75L20,11.45Z" transform="translate(-1 -7)" fill="#0066a4"/>
</svg>
