<svg xmlns="http://www.w3.org/2000/svg" width="225.555" height="36.497" viewBox="0 0 225.555 36.497">
  <g id="logo-alt" transform="translate(-2052 107)">
    <path id="Path_366" data-name="Path 366" d="M192.2,281.843H200v15.181c-2.924,1.616-5-1.2-7.9-1.248C192.169,291.166,191.961,286.279,192.2,281.843Z" transform="translate(1888.496 -388.843)" fill="#fff" fill-rule="evenodd"/>
    <path id="Path_367" data-name="Path 367" d="M177.343,284.513v11.854c-3.268-.584-4.553,2.228-7.9,1.56-.173-4.23-.174-9.184,0-13.414Z" transform="translate(1892.646 -389.33)" fill="#fff" fill-rule="evenodd"/>
    <path id="Path_368" data-name="Path 368" d="M211.177,287.946v10.71c-2.646.082-3.171-1.941-6.031-1.768a4.93,4.93,0,0,0-2.391.832,91.9,91.9,0,0,1,0-9.774Z" transform="translate(1886.575 -389.955)" fill="#fff" fill-rule="evenodd"/>
    <path id="Path_369" data-name="Path 369" d="M166.494,291.506v6.967c-.173.425-.512-.2-.728-.312a6.833,6.833,0,0,0-3.327-.624c-1.93.188-3.3,1.809-5.3,1.768v-7.8Z" transform="translate(1894.864 -390.604)" fill="#fff" fill-rule="evenodd"/>
    <path id="Path_370" data-name="Path 370" d="M189.255,295.039v3.12c-1.605.029-2.718,1.53-4.159,1.768-2.107.348-3.292-1.135-5.2-1.456v-3.535C182.982,295,186.343,294.8,189.255,295.039Z" transform="translate(1890.717 -391.226)" fill="#fff" fill-rule="evenodd"/>
    <path id="Path_371" data-name="Path 371" d="M166.494,302.9V319.74h-9.358V303.207c2.184.353,3.626-1.434,5.407-1.664C164.268,301.321,165.261,302.146,166.494,302.9Z" transform="translate(1894.864 -392.426)" fill="#fff" fill-rule="evenodd"/>
    <path id="Path_372" data-name="Path 372" d="M177.349,301.668v13.1h-8.007V303.228C173,304.152,174.169,301.21,177.349,301.668Z" transform="translate(1892.64 -392.447)" fill="#fff" fill-rule="evenodd"/>
    <path id="Path_373" data-name="Path 373" d="M189.15,301.679c.243,6.551.035,13.552.1,20.276H179.9V301.887c1.708.8,2.888,1.691,4.887,1.456C186.515,303.139,187.877,301.671,189.15,301.679Z" transform="translate(1890.717 -392.458)" fill="#fff" fill-rule="evenodd"/>
    <path id="Path_374" data-name="Path 374" d="M199.9,302.8c.243,2.842.035,6.135.1,9.15h-7.9v-10.4C194.387,302.171,197.082,304.348,199.9,302.8Z" transform="translate(1888.492 -392.434)" fill="#fff" fill-rule="evenodd"/>
    <path id="Path_375" data-name="Path 375" d="M211.183,303.208v13h-8.526V302.377a5.879,5.879,0,0,1,1.872-.832C206.986,301.229,208.5,303.517,211.183,303.208Z" transform="translate(1886.569 -392.428)" fill="#fff" fill-rule="evenodd"/>
    <path id="Path_376" data-name="Path 376" d="M251.042,286.953c-.9,2.117-2.054,3.976-3.015,6.031-1.227-.63-3.256-2.152-5.72-1.873-1.487.17-3.158,1.191-2.807,2.912a3.155,3.155,0,0,0,1.768,1.872c1.617.8,3.684.97,5.511,1.768,3.526,1.538,5.869,3.607,5.512,8.943a12.386,12.386,0,0,1-1.04,4.263c-3.27,6.654-15.213,6.743-21.108,1.872.966-2.224,2.229-4.149,3.223-6.343,1.837,1.258,4.263,3.642,7.9,3.119,1.466-.21,3.319-1.46,2.808-3.535-.462-1.875-3.727-2.593-5.72-3.223-2.478-.784-5.337-1.811-6.343-3.848a10.675,10.675,0,0,1-.729-5.407,9.737,9.737,0,0,1,8.943-8.943C244.795,284.159,247.583,285.479,251.042,286.953Z" transform="translate(1881.561 -389.325)" fill="#fff" fill-rule="evenodd"/>
    <path id="Path_377" data-name="Path 377" d="M428.769,285.341V315.5h-4.263v-2.08c-.668.432-1.29,1.391-2.08,1.872a8.618,8.618,0,0,1-5.3.936c-3.968-.5-6.734-3.836-7.07-8.215-.457-5.929,2.044-11.718,8.422-11.645a6.371,6.371,0,0,1,6.032,3.431c.069-4.784-.138-9.844.1-14.453Zm-10.4,14.973c-3.6.6-4.978,6.171-3.223,9.669a5.177,5.177,0,0,0,7.487,1.456c2.91-2.428,2.435-8.381.1-10.294a5.127,5.127,0,0,0-4.159-.832C418.511,300.327,418.438,300.3,418.37,300.314Z" transform="translate(1848.786 -389.48)" fill="#fff" fill-rule="evenodd"/>
    <path id="Path_378" data-name="Path 378" d="M261.777,285.468H278.83v6.654h-9.15a45.012,45.012,0,0,0-.1,4.888c2.739.242,5.927.034,8.839.1v6.656h-8.734a46.937,46.937,0,0,0-.1,4.991c2.878.242,6.2.034,9.255.1v6.654H261.673C261.742,305.536,261.534,295.276,261.777,285.468Z" transform="translate(1875.818 -389.504)" fill="#fff" fill-rule="evenodd"/>
    <path id="Path_379" data-name="Path 379" d="M305.372,285.468c3.776,9.983,7.475,20.046,11.334,29.947-2.6.243-5.649.034-8.422.1-.605-1.753-1.337-3.377-1.872-5.2H295.7c-.784,1.641-1.433,3.42-2.078,5.2H285.2c3.866-10,7.742-19.986,11.543-30.051h8.63Zm-7.59,18.82c2.113-.069,4.5.138,6.447-.1-1.166-3.028-2.058-6.33-3.223-9.358C299.912,297.964,298.906,301.185,297.782,304.288Z" transform="translate(1871.528 -389.504)" fill="#fff" fill-rule="evenodd"/>
    <path id="Path_380" data-name="Path 380" d="M330.867,285.976c3.348,7.155,6.953,14.052,9.879,21.629q4.929-10.823,9.878-21.629c2.491,9.71,4.641,19.761,6.967,29.635h-4.368c-1.1-5.9-2.877-11.126-3.535-17.469a2.715,2.715,0,0,0-.52,1.247,22.983,22.983,0,0,1-1.56,3.536c-2.283,4.54-4.384,9.153-6.655,13.829a8.257,8.257,0,0,1-1.247-2.287c-1.094-2.211-2.219-4.6-3.328-6.967-1.438-3.067-3.234-6.076-4.264-9.462-1,6.074-2.5,11.643-3.638,17.572h-4.368C326.378,305.75,328.559,295.8,330.867,285.976Z" transform="translate(1864.437 -389.596)" fill="#fff" fill-rule="evenodd"/>
    <path id="Path_381" data-name="Path 381" d="M369.733,287.375h4.575v28.49h-4.679V287.687C369.618,287.54,369.611,287.393,369.733,287.375Z" transform="translate(1856.144 -389.851)" fill="#fff" fill-rule="evenodd"/>
    <path id="Path_382" data-name="Path 382" d="M400.866,317.946H396.5c-.186-3.185.244-7.834,0-11.23-.183-2.562-1.039-4.131-3.639-4.263-2.166-.11-4.548,1.012-5.2,2.808-1.124,3.094-.009,8.8-.415,12.685H382.98v-18.4h4.056v2.7a8.457,8.457,0,0,1,6.343-3.431,8.025,8.025,0,0,1,5.614,1.456C402.577,303.329,400.125,312.066,400.866,317.946Z" transform="translate(1853.71 -391.931)" fill="#fff" fill-rule="evenodd"/>
  </g>
</svg>
