<svg xmlns="http://www.w3.org/2000/svg" width="24" height="24" viewBox="0 0 24 24">
  <path id="icon-agenda2030" d="M110,28a12,12,0,1,0,12,12A12.014,12.014,0,0,0,110,28Zm-8.68,7.069a2.331,2.331,0,0,1,1.652-.876,2.385,2.385,0,0,1,1.59.877c.976.976,1.453.976,2.428,0l0,0a2.332,2.332,0,0,1,1.652-.876,2.385,2.385,0,0,1,1.59.877c.976.976,1.453.976,2.428,0l0,0c1.166-1.166,2.075-1.166,3.242,0,.976.976,1.453.977,2.43,0a.245.245,0,1,1,.346.346,1.83,1.83,0,0,1-3.122,0c-.977-.977-1.572-.977-2.548,0l0,0a1.83,1.83,0,0,1-3.122,0,1.474,1.474,0,0,0-2.547,0l0,0a1.83,1.83,0,0,1-3.122,0,1.474,1.474,0,0,0-2.549,0,.246.246,0,0,1-.347-.347Zm17.361,9.867a1.83,1.83,0,0,1-3.122,0c-.977-.977-1.572-.977-2.548,0l0,0a1.83,1.83,0,0,1-3.122,0,1.474,1.474,0,0,0-2.547,0l0,0a1.83,1.83,0,0,1-3.122,0,1.966,1.966,0,0,0-1.253-.734,1.943,1.943,0,0,0-1.3.733.245.245,0,0,1-.346-.346,2.321,2.321,0,0,1,1.652-.876,2.385,2.385,0,0,1,1.59.877c.976.976,1.453.976,2.428,0l0,0a2.322,2.322,0,0,1,1.652-.876,2.385,2.385,0,0,1,1.59.877c.976.976,1.453.976,2.428,0l0,0c1.166-1.166,2.075-1.166,3.242,0,.976.976,1.453.977,2.43,0a.244.244,0,1,1,.345.346Zm0-3.173a2.326,2.326,0,0,1-1.566.873h-.022a2.317,2.317,0,0,1-1.534-.873c-.977-.977-1.572-.978-2.548,0l0,0a2.326,2.326,0,0,1-1.566.873h-.022a2.317,2.317,0,0,1-1.534-.873c-.977-.977-1.572-.977-2.548,0l0,0a2.326,2.326,0,0,1-1.566.873h-.022a2.317,2.317,0,0,1-1.534-.873c-.977-.977-1.573-.977-2.549,0a.245.245,0,0,1-.346-.346c1.166-1.166,2.075-1.166,3.242,0,.506.506.863.724,1.2.73s.722-.219,1.231-.728l0,0c1.166-1.166,2.075-1.166,3.242,0,.506.506.863.724,1.2.73s.722-.219,1.231-.728l0,0c1.166-1.166,2.075-1.166,3.242,0,.506.506.863.724,1.2.73s.722-.219,1.233-.73a.245.245,0,0,1,.347.346Zm0-3.173a1.83,1.83,0,0,1-3.122,0c-.977-.977-1.572-.977-2.548,0l0,0a1.83,1.83,0,0,1-3.122,0,1.474,1.474,0,0,0-2.547,0l0,0a1.83,1.83,0,0,1-3.122,0,1.474,1.474,0,0,0-2.549,0,.245.245,0,0,1-.346-.346,2.331,2.331,0,0,1,1.652-.876,2.385,2.385,0,0,1,1.59.877c.976.976,1.453.976,2.428,0l0,0a2.332,2.332,0,0,1,1.652-.876,2.385,2.385,0,0,1,1.59.877c.976.976,1.453.976,2.428,0l0,0c1.166-1.166,2.075-1.166,3.242,0,.976.976,1.453.977,2.43,0a.244.244,0,1,1,.345.346Z" transform="translate(-98 -28)" fill="#00253d"/>
</svg>
