<svg xmlns="http://www.w3.org/2000/svg" width="23.999" height="23.999" viewBox="0 0 23.999 23.999">
  <g id="icon-dqem" transform="translate(-83.88 -13.883)">
    <path id="Path_1006" data-name="Path 1006" d="M95.879,13.883a12,12,0,1,1-12,12A12,12,0,0,1,95.879,13.883Zm11.253,14.029a2.972,2.972,0,0,0-2.388.328,2.541,2.541,0,0,1-2.746,0,3.082,3.082,0,0,0-3.224,0,2.643,2.643,0,0,1-2.806,0,2.966,2.966,0,0,0-3.134,0,2.541,2.541,0,0,1-2.746,0,3.029,3.029,0,0,0-3.194,0,2.574,2.574,0,0,1-2.119.3l.06.179a2.919,2.919,0,0,0,2.209-.358,2.822,2.822,0,0,1,2.925,0,2.79,2.79,0,0,0,3.015,0,2.634,2.634,0,0,1,2.836,0,2.978,2.978,0,0,0,3.1,0,2.817,2.817,0,0,1,2.925,0,2.841,2.841,0,0,0,3.045,0,2.665,2.665,0,0,1,2.209-.3l.03-.149ZM84.477,25.643a2.6,2.6,0,0,1,2.418.209,3.1,3.1,0,0,0,3.194,0,2.483,2.483,0,0,1,2.746,0,3.031,3.031,0,0,0,3.134,0,2.583,2.583,0,0,1,2.806,0,3.149,3.149,0,0,0,3.224,0,2.483,2.483,0,0,1,2.746,0,3.02,3.02,0,0,0,2.567.269,11.42,11.42,0,0,0-22.834-.478Zm.866,4.656.09.149a2.811,2.811,0,0,1,1.463.418,3.029,3.029,0,0,0,3.194,0,2.541,2.541,0,0,1,2.746,0,2.966,2.966,0,0,0,3.134,0,2.583,2.583,0,0,1,2.806,0,3.082,3.082,0,0,0,3.224,0,2.541,2.541,0,0,1,2.746,0,3.723,3.723,0,0,0,1.224.418l.06-.149a3.022,3.022,0,0,1-1.134-.388,2.841,2.841,0,0,0-3.045,0,2.817,2.817,0,0,1-2.925,0,2.914,2.914,0,0,0-3.1,0,2.634,2.634,0,0,1-2.836,0,2.79,2.79,0,0,0-3.015,0,2.822,2.822,0,0,1-2.925,0,2.979,2.979,0,0,0-1.7-.448Zm1.731,2.866.119.149a2.734,2.734,0,0,1,2.776.09,2.8,2.8,0,0,0,3.015-.03,2.7,2.7,0,0,1,2.836,0,2.914,2.914,0,0,0,3.1,0,2.808,2.808,0,0,1,2.925.03,3.059,3.059,0,0,0,2.388.3c.09-.119.179-.209.269-.328A2.448,2.448,0,0,1,102,33.255a3.149,3.149,0,0,0-3.224,0,2.583,2.583,0,0,1-2.806,0,2.966,2.966,0,0,0-3.134,0,2.541,2.541,0,0,1-2.746,0,3.1,3.1,0,0,0-3.015-.09ZM90.059,35.7l.179.119a2.47,2.47,0,0,1,2.6.06,2.905,2.905,0,0,0,3.134,0,2.708,2.708,0,0,1,2.806,0,2.993,2.993,0,0,0,1.731.448,4.9,4.9,0,0,0,.567-.269,2.543,2.543,0,0,1-2.149-.3,2.978,2.978,0,0,0-3.1,0,2.634,2.634,0,0,1-2.836,0,2.779,2.779,0,0,0-2.925-.06Z" fill="#00253d" fill-rule="evenodd"/>
  </g>
</svg>
