<svg id="icon-temas" xmlns="http://www.w3.org/2000/svg" width="20.17" height="24.005" viewBox="0 0 20.17 24.005">
  <g id="Group_435" data-name="Group 435">
    <path id="Path_1008" data-name="Path 1008" d="M18.45,9.45h1.24V5.87h-1.3a8.924,8.924,0,0,1,.22,1.93,8.314,8.314,0,0,1-.16,1.65Z" fill="#00253d"/>
    <path id="Path_1009" data-name="Path 1009" d="M10.09,13.14a5.35,5.35,0,0,0,0-10.7,5.35,5.35,0,0,0,0,10.7ZM6.08,7.71a.361.361,0,0,1-.24-.45A5.9,5.9,0,0,1,9.83,3.31a.366.366,0,0,1,.45.25.361.361,0,0,1-.24.45,5.151,5.151,0,0,0-3.5,3.46.373.373,0,0,1-.46.25h0Z" fill="#00253d"/>
    <path id="Path_1010" data-name="Path 1010" d="M15.63,14.26a8.522,8.522,0,0,1-11.1.01.425.425,0,0,1-.11.02H0a10,10,0,0,0,2.95,6.74h0a10.093,10.093,0,0,0,17.22-6.74H15.74s-.07-.01-.11-.02h0Z" fill="#00253d"/>
    <path id="Path_1011" data-name="Path 1011" d="M2.54,9.74a7.8,7.8,0,0,0,15.1,0,.1.1,0,0,1,.02-.07A7.795,7.795,0,1,0,2.3,7.79a7.994,7.994,0,0,0,.23,1.88.185.185,0,0,0,.02.07h0Zm7.55-8.03a6.095,6.095,0,1,0-.01.01Z" fill="#00253d"/>
    <path id="Path_1012" data-name="Path 1012" d="M1.57,7.8a8.341,8.341,0,0,1,.22-1.93H.48V9.45H1.72A8.314,8.314,0,0,1,1.56,7.8h0Z" fill="#00253d"/>
  </g>
</svg>
