<svg xmlns="http://www.w3.org/2000/svg" width="24.03" height="24.003" viewBox="0 0 24.03 24.003">
  <g id="icon-oem" transform="translate(0.03 0.003)">
    <g id="Group_433" data-name="Group 433">
      <path id="Path_1000" data-name="Path 1000" d="M21.43,1.71h-.86V.85a.837.837,0,0,0-.43-.74.878.878,0,0,0-.86,0,.849.849,0,0,0-.43.74v.86H15.42V.85a.837.837,0,0,0-.43-.74.878.878,0,0,0-.86,0,.849.849,0,0,0-.43.74v.86H10.27V.85A.837.837,0,0,0,9.84.11a.878.878,0,0,0-.86,0,.849.849,0,0,0-.43.74v.86H5.12V.85A.837.837,0,0,0,4.69.11a.878.878,0,0,0-.86,0A.849.849,0,0,0,3.4.85v.86H2.54A2.561,2.561,0,0,0-.03,4.28V5.99h24V4.28A2.561,2.561,0,0,0,21.4,1.71Z" fill="#00253d"/>
      <path id="Path_1001" data-name="Path 1001" d="M0,21.43A2.561,2.561,0,0,0,2.57,24H21.43A2.561,2.561,0,0,0,24,21.43V7.71H0V21.42ZM6.86,13.3a2.957,2.957,0,0,1,1.75.55,1.377,1.377,0,0,0,.82.28,1.355,1.355,0,0,0,.82-.28,3.059,3.059,0,0,1,3.5,0,1.37,1.37,0,0,0,1.66,0,2.957,2.957,0,0,1,1.75-.55.837.837,0,0,1,.74.43.878.878,0,0,1,0,.86.849.849,0,0,1-.74.43,1.321,1.321,0,0,0-.83.28,3.059,3.059,0,0,1-3.5,0,1.341,1.341,0,0,0-1.64,0,3.059,3.059,0,0,1-3.5,0,1.247,1.247,0,0,0-.83-.28.837.837,0,0,1-.74-.43.878.878,0,0,1,0-.86.849.849,0,0,1,.74-.43h0Zm0,3.43a2.957,2.957,0,0,1,1.75.55,1.377,1.377,0,0,0,.82.28,1.355,1.355,0,0,0,.82-.28,3.059,3.059,0,0,1,3.5,0,1.37,1.37,0,0,0,1.66,0,2.957,2.957,0,0,1,1.75-.55.837.837,0,0,1,.74.43.878.878,0,0,1,0,.86.849.849,0,0,1-.74.43,1.321,1.321,0,0,0-.83.28,3.059,3.059,0,0,1-3.5,0,1.341,1.341,0,0,0-1.64,0,3.059,3.059,0,0,1-3.5,0,1.247,1.247,0,0,0-.83-.28.837.837,0,0,1-.74-.43.878.878,0,0,1,0-.86.849.849,0,0,1,.74-.43h0Z" fill="#00253d"/>
    </g>
  </g>
</svg>
