<svg xmlns="http://www.w3.org/2000/svg" width="89.824" height="117.475" viewBox="0 0 89.824 117.475">
  <g id="icon-barco" transform="translate(-269.16 -1170.525)">
    <g id="Group_139" data-name="Group 139">
      <path id="Path_705" data-name="Path 705" d="M297.692,1170.7c3.961-.791,5.149,1.191,5.284,4.228,21.879-.367,34.157,17.689,42.27,32.759,7.54,14.005,13.5,31.022,13.738,47.554-11.918,2.126-28.637.755-43.327,1.057-4.218.087-10.573-1.861-12.681,2.113.049,5.581,7.8,3.028,11.624,3.17,11.5.428,29.859-1.847,39.1,2.113-4.08,9.307-10.053,16.719-15.852,24.306H283.954c-6.446-6.939-12.317-14.454-14.794-25.361,7.015-2.145,17.732-.584,26.418-1.058C298.739,1233.75,294.534,1198.54,297.692,1170.7Zm5.284,13.74c.18,15.811-.242,35.6,0,50.724.072,4.531-2.665,13.263,3.17,14.8,3.912-3.183,2.083-10.335,2.114-15.852.068-12.8.063-25.334,0-36.986-.03-5.434,2.33-15.976-3.17-15.851h-2.113C302.976,1182.33,302.976,1183.38,302.976,1184.44Zm10.567,65.52h39.1c-4.617-30.961-16.081-55.073-39.1-67.632Zm-27.476,32.76H333.62a42.756,42.756,0,0,0,10.567-14.794H277.612C279.794,1273.49,283.218,1277.82,286.067,1282.72Z" fill="#0065a4" fill-rule="evenodd"/>
    </g>
  </g>
</svg>
