<svg xmlns="http://www.w3.org/2000/svg" width="20" height="20" viewBox="0 0 20 20">
  <path id="icon-language" d="M12,22a9.671,9.671,0,0,1-3.875-.788,10.078,10.078,0,0,1-5.337-5.337A9.671,9.671,0,0,1,2,12a9.64,9.64,0,0,1,.788-3.887A10.117,10.117,0,0,1,8.125,2.787,9.681,9.681,0,0,1,12,2a9.651,9.651,0,0,1,3.887.787,10.15,10.15,0,0,1,5.325,5.326A9.64,9.64,0,0,1,22,12a9.671,9.671,0,0,1-.788,3.875,10.11,10.11,0,0,1-5.325,5.337A9.64,9.64,0,0,1,12,22Zm0-2.05a12.7,12.7,0,0,0,1.125-1.875A11.836,11.836,0,0,0,13.9,16H10.1a11.836,11.836,0,0,0,.775,2.075A12.7,12.7,0,0,0,12,19.95Zm-2.6-.4a13.792,13.792,0,0,1-.787-1.713A14.606,14.606,0,0,1,8.05,16H5.1a8.3,8.3,0,0,0,1.812,2.175A7.2,7.2,0,0,0,9.4,19.55Zm5.2,0a7.19,7.19,0,0,0,2.487-1.375A8.294,8.294,0,0,0,18.9,16H15.95a14.714,14.714,0,0,1-.562,1.837A13.9,13.9,0,0,1,14.6,19.55ZM4.25,14h3.4q-.075-.5-.113-.988T7.5,12q0-.525.037-1.012T7.65,10H4.25a8.627,8.627,0,0,0-.188.988,8.29,8.29,0,0,0,0,2.024A8.627,8.627,0,0,0,4.25,14Zm5.4,0h4.7q.075-.5.113-.988T14.5,12q0-.525-.037-1.012T14.35,10H9.65q-.075.5-.112.988T9.5,12q0,.525.038,1.012T9.65,14Zm6.7,0h3.4a8.627,8.627,0,0,0,.188-.988,8.29,8.29,0,0,0,0-2.024A8.627,8.627,0,0,0,19.75,10h-3.4q.075.5.112.988T16.5,12q0,.525-.038,1.012T16.35,14Zm-.4-6H18.9a8.294,8.294,0,0,0-1.813-2.175A7.19,7.19,0,0,0,14.6,4.45a13.927,13.927,0,0,1,.788,1.712A14.764,14.764,0,0,1,15.95,8ZM10.1,8h3.8a11.836,11.836,0,0,0-.775-2.075A12.7,12.7,0,0,0,12,4.05a12.7,12.7,0,0,0-1.125,1.875A11.836,11.836,0,0,0,10.1,8Zm-5,0H8.05a14.655,14.655,0,0,1,.563-1.838A13.823,13.823,0,0,1,9.4,4.45,7.2,7.2,0,0,0,6.912,5.825,8.3,8.3,0,0,0,5.1,8Z" transform="translate(-2 -2)" fill="#fff"/>
</svg>
