<svg xmlns="http://www.w3.org/2000/svg" width="183.503" height="162.004" viewBox="0 0 183.503 162.004">
  <g id="icon-mapa" transform="translate(-1087.636 -1149.26)">
    <g id="Group_135" data-name="Group 135">
      <path id="Path_701" data-name="Path 701" d="M1176.7,1149.26h10.749c23.38,4.7,41.234,22.134,38.39,49.907-1.557,15.2-9.4,27.4-15.356,39.157,4.809,4.662,12.129,6.811,17.66,10.749,6.884-1.369,14.806-2.938,22.266-4.606,7.157-1.6,15.06-5.422,20.73-1.536v3.839c-13.481,13.2-28.316,27.549-43,42.229-4.379,4.379-9.233,11.77-13.82,13.82-5.625,2.512-13.559,2.386-19.963,3.839-6.149,1.394-12.117,2.594-18.428,4.606h-3.839c-12.972-7.758-26.405-15.056-39.925-22.266-7.082,2.44-15.292,4.953-23.034,7.678-6.9,2.429-15,8.238-21.5,3.839v-3.071c13.421-13.7,27.79-28.558,41.461-42.229,7.36-7.361,13.243-15.034,23.8-16.892-6.141-13.569-15.463-27.741-15.356-45.3C1137.69,1169.12,1154.95,1153.66,1176.7,1149.26Zm41.47,45.3c.985-21.993-17.516-38.766-38.39-37.622-21.4,1.173-35.923,19.545-33.783,41.461,2.661,27.263,23.724,49.818,36.086,66.03C1194.31,1246.62,1216.85,1223.86,1218.17,1194.56Zm-89.84,73.71c-7.5,7.5-15.336,13.6-19.963,20.73a180.315,180.315,0,0,1,22.266-7.679c4.559-5.679,10.237-10.236,15.356-15.355,5.29-5.289,11.3-10.552,14.588-16.892-1.744-.56-2.3-2.311-3.071-3.839C1143.68,1248.3,1137.31,1259.3,1128.33,1268.27Zm76.78-22.27c-2.793,6.6-7.4,10.946-11.517,16.124-3.568,4.482-6.275,10.611-12.285,12.284a48.164,48.164,0,0,1-8.445-7.678c-1.681-1.955-4.793-9.263-7.679-9.214-.5.009-4.711,5.479-6.142,6.91-6.991,6.991-14.857,13.131-19.195,19.963a333.588,333.588,0,0,1,32.247,17.659c17.467-15.036,32.952-32.055,49.14-48.371C1214.99,1251.99,1211.52,1247.53,1205.11,1246Zm25.34,10.75c-3.749,1.793-6.971,6.971-10.749,10.749-11.39,11.391-24.171,22.436-32.247,33.016,8.07-3.832,16.549-1.906,23.8-5.375,3.749-1.792,6.971-6.971,10.749-10.749,9.414-9.414,19.563-18.02,27.641-26.873,1.64-1.8,4.34-4.995,3.839-6.142C1245.72,1255.42,1237.56,1253.35,1230.45,1256.75Z" fill="#0065a4" fill-rule="evenodd"/>
      <path id="Path_702" data-name="Path 702" d="M1179.78,1169.22c14.186-1.29,27.227,8.35,26.872,24.569-.325,14.932-13.339,26.674-29.943,23.8-12.685-2.194-20.464-15.763-19.195-27.641C1158.6,1179.73,1165.9,1170.49,1179.78,1169.22Zm3.83,40.7c4.461-.352,12.954-4.655,14.588-11.518,3.684-15.473-9.86-23.369-20.73-20.73C1157.37,1182.55,1164.7,1211.41,1183.61,1209.92Z" fill="#0065a4" fill-rule="evenodd"/>
    </g>
  </g>
</svg>
