<svg xmlns="http://www.w3.org/2000/svg" width="1046.862" height="835.093" viewBox="0 0 1046.862 835.093">
  <g id="logo-xxl" transform="translate(-960.568 -301.696)" opacity="0.13">
    <path id="Path_690" data-name="Path 690" d="M1617.25,301.7h178.436v347.37c-66.915,36.965-114.516-27.557-180.829-28.563C1616.44,515.016,1611.69,403.2,1617.25,301.7Z" fill="#fff" fill-rule="evenodd"/>
    <path id="Path_691" data-name="Path 691" d="M1372.19,351.655V622.881c-74.773-13.357-104.192,50.963-180.83,35.688-3.947-96.775-3.982-210.139,0-306.914Z" fill="#fff" fill-rule="evenodd"/>
    <path id="Path_692" data-name="Path 692" d="M2007.43,415.9v245.04c-60.558,1.883-72.544-44.4-138-40.439-21.782,1.3-37.533,8.645-54.71,19.023-3.982-69-3.982-154.626,0-223.624Z" fill="#fff" fill-rule="evenodd"/>
    <path id="Path_693" data-name="Path 693" d="M1174.69,482.49V641.922c-3.965,9.721-11.712-4.516-16.664-7.146-16.373-8.678-49.74-16.848-76.126-14.271-44.147,4.295-75.505,41.391-121.332,40.439V482.49Z" fill="#fff" fill-rule="evenodd"/>
    <path id="Path_694" data-name="Path 694" d="M1600.6,549.111V620.5c-36.747.641-62.2,34.994-95.165,40.439-48.2,7.967-75.359-25.947-118.976-33.295v-80.91C1457.06,548.309,1533.94,543.631,1600.6,549.111Z" fill="#fff" fill-rule="evenodd"/>
    <path id="Path_695" data-name="Path 695" d="M1174.69,701.4v385.432H960.568V708.525c49.977,8.1,82.959-32.816,123.726-38.063C1123.77,665.383,1146.5,684.24,1174.69,701.4Z" fill="#fff" fill-rule="evenodd"/>
    <path id="Path_696" data-name="Path 696" d="M1372.19,672.857v299.77H1188.984v-264.1C1272.56,729.686,1299.41,662.369,1372.19,672.857Z" fill="#fff" fill-rule="evenodd"/>
    <path id="Path_697" data-name="Path 697" d="M1598.19,672.857c5.555,149.893.8,310.092,2.412,463.932H1386.461V677.607c39.085,18.348,66.057,38.7,111.812,33.313C1537.91,706.26,1569.06,672.674,1598.19,672.857Z" fill="#fff" fill-rule="evenodd"/>
    <path id="Path_698" data-name="Path 698" d="M1793.29,699.023c5.573,65.016.8,140.373,2.393,209.373H1614.854V670.462C1667.13,684.625,1728.8,734.455,1793.29,699.023Z" fill="#fff" fill-rule="evenodd"/>
    <path id="Path_699" data-name="Path 699" d="M2007.43,708.525v297.412H1812.348V689.5c15.422-7.656,26.312-16.9,42.813-19.041C1911.39,663.246,1946.1,715.58,2007.43,708.525Z" fill="#fff" fill-rule="evenodd"/>
  </g>
</svg>
