<svg id="waves" xmlns="http://www.w3.org/2000/svg" width="1920" height="222" viewBox="0 0 1920 222">
  <path id="wave6" d="M1920,140.74l-17.733,8.817c-17.867,8.487-52.933,26.615-88.933,17.551-35.6-9.064-70.667-43.671-106.667-43.918-35.6.247-70.667,34.854-106.667,30.735-35.6-4.12-70.667-48.615-106.667-57.1-35.6-8.817-70.667,17.551-106.667,35.1C1351.067,149.8,1316,158.043,1280,162.74c-35.6,4.367-70.667,4.367-106.667-4.449-35.6-8.487-70.667-26.615-106.667-30.735-35.6-4.12-70.667,4.12-106.667,0-35.6-4.12-70.667-22.248-106.667-22-35.6-.247-70.667,17.88-106.667,8.817C711.067,105.308,676,70.7,640,57.27c-35.6-12.937-70.667-4.7-106.667,4.367-35.6,9.064-70.667,17.3-106.667,22C391.067,88,356,88,320,96.821c-35.6,8.487-70.667,26.615-106.667,52.735-35.6,26.615-70.667,61.222-106.667,65.919-35.6,4.367-70.667-22-89.333-35.184L0,167.107v105.47H1920Z" transform="translate(0 -50.577)" fill="#003e65"/>
  <path id="wave2" d="M0,63.2,32,82.787c32,19.293,96,58.907,160,58.687,64,.22,128-39.393,192-46.949,64-7.849,128,15.625,192,31.251,64,15.919,128,23.255,192,3.961,64-19.587,128-66.536,192-54.8s128,82.161,192,101.748c64,19.293,128-11.517,192-27.436,64-15.625,128-15.625,192-31.251,64-15.919,128-46.729,192-54.8s128,8.069,160,15.625l32,7.849V251H0Z" transform="translate(0 -29.997)" fill="#0066a4"/>
  <path id="wave" d="M1920,63.339l-32,20.824c-32,20.512-96,62.627-160,62.393-64,.234-128-41.881-192-49.914-64-8.345-128,16.612-192,33.224-64,16.924-128,24.723-192,4.212-64-20.824-128-70.738-192-58.26s-128,87.35-192,108.174c-64,20.512-128-12.245-192-29.169-64-16.612-128-16.612-192-33.224-64-16.924-128-49.681-192-58.26S64,71.918,32,79.951L0,88.3V263H1920Z" transform="translate(0 -40.997)" fill="#fff"/>
</svg>
