<svg xmlns="http://www.w3.org/2000/svg" width="48" height="36.497" viewBox="0 0 48 36.497">
  <g id="logo-alt" transform="translate(-2052 107)">
    <path id="Path_366" data-name="Path 366" d="M192.2,281.843H200v15.181c-2.924,1.616-5-1.2-7.9-1.248C192.169,291.166,191.961,286.279,192.2,281.843Z" transform="translate(1888.496 -388.843)" fill="#0091BB" fill-rule="evenodd"/>
    <path id="Path_367" data-name="Path 367" d="M177.343,284.513v11.854c-3.268-.584-4.553,2.228-7.9,1.56-.173-4.23-.174-9.184,0-13.414Z" transform="translate(1892.646 -389.33)" fill="#0091BB" fill-rule="evenodd"/>
    <path id="Path_368" data-name="Path 368" d="M211.177,287.946v10.71c-2.646.082-3.171-1.941-6.031-1.768a4.93,4.93,0,0,0-2.391.832,91.9,91.9,0,0,1,0-9.774Z" transform="translate(1886.575 -389.955)" fill="#0091BB" fill-rule="evenodd"/>
    <path id="Path_369" data-name="Path 369" d="M166.494,291.506v6.967c-.173.425-.512-.2-.728-.312a6.833,6.833,0,0,0-3.327-.624c-1.93.188-3.3,1.809-5.3,1.768v-7.8Z" transform="translate(1894.864 -390.604)" fill="#0091BB" fill-rule="evenodd"/>
    <path id="Path_370" data-name="Path 370" d="M189.255,295.039v3.12c-1.605.029-2.718,1.53-4.159,1.768-2.107.348-3.292-1.135-5.2-1.456v-3.535C182.982,295,186.343,294.8,189.255,295.039Z" transform="translate(1890.717 -391.226)" fill="#0091BB" fill-rule="evenodd"/>
    <path id="Path_371" data-name="Path 371" d="M166.494,302.9V319.74h-9.358V303.207c2.184.353,3.626-1.434,5.407-1.664C164.268,301.321,165.261,302.146,166.494,302.9Z" transform="translate(1894.864 -392.426)" fill="#044F7E" fill-rule="evenodd"/>
    <path id="Path_372" data-name="Path 372" d="M177.349,301.668v13.1h-8.007V303.228C173,304.152,174.169,301.21,177.349,301.668Z" transform="translate(1892.64 -392.447)" fill="#044F7E" fill-rule="evenodd"/>
    <path id="Path_373" data-name="Path 373" d="M189.15,301.679c.243,6.551.035,13.552.1,20.276H179.9V301.887c1.708.8,2.888,1.691,4.887,1.456C186.515,303.139,187.877,301.671,189.15,301.679Z" transform="translate(1890.717 -392.458)" fill="#044F7E" fill-rule="evenodd"/>
    <path id="Path_374" data-name="Path 374" d="M199.9,302.8c.243,2.842.035,6.135.1,9.15h-7.9v-10.4C194.387,302.171,197.082,304.348,199.9,302.8Z" transform="translate(1888.492 -392.434)" fill="#044F7E" fill-rule="evenodd"/>
    <path id="Path_375" data-name="Path 375" d="M211.183,303.208v13h-8.526V302.377a5.879,5.879,0,0,1,1.872-.832C206.986,301.229,208.5,303.517,211.183,303.208Z" transform="translate(1886.569 -392.428)" fill="#044F7E" fill-rule="evenodd"/>
  </g>
</svg>
