<svg xmlns="http://www.w3.org/2000/svg" width="24" height="24" viewBox="0 0 24 24">
  <path id="icon-ambiente" d="M124.21,49.572c-.695.079-1.37.158-2.018.216a5.937,5.937,0,0,1-3.2-1.059A10.778,10.778,0,0,1,117.322,46c-.313-.738-.665-1.5-1.061-2.276-1.2-2.438-3.269-2.789-3.715-.521-.142.713-.279,1.4-.426,2.064a6.34,6.34,0,0,1-1.957,2.837,9.973,9.973,0,0,1-3.014.812q-1.157.123-2.408.346c-2.6.431-3.559,2.372-1.623,3.514.607.36,1.2.71,1.754,1.059a6.335,6.335,0,0,1,1.987,2.812,11.119,11.119,0,0,1-.188,3.232q-.246,1.183-.429,2.49c-.407,2.7,1.069,4.254,2.711,2.691.517-.489,1.019-.965,1.511-1.409a5.943,5.943,0,0,1,3.185-1.1,10.052,10.052,0,0,1,2.9,1.185q1.006.611,2.144,1.193c2.346,1.239,4.22.257,3.3-1.851-.287-.663-.568-1.306-.821-1.929a6.594,6.594,0,0,1-.019-3.491,10.591,10.591,0,0,1,1.979-2.5q.869-.806,1.754-1.753c1.858-1.936,1.539-4.094-.672-3.834Zm-17.635,2.6a.74.74,0,0,1-.941.5.783.783,0,0,1-.48-.978.74.74,0,0,1,.941-.5.785.785,0,0,1,.48.979Zm10.74.6a1.082,1.082,0,0,1,1.375.729,1.143,1.143,0,0,1-.7,1.43,1.082,1.082,0,0,1-1.377-.728,1.145,1.145,0,0,1,.7-1.431Zm-2.06-4.511a.827.827,0,1,1-.826-.859A.844.844,0,0,1,115.255,48.259Zm-1.091-3.377a.778.778,0,1,1-.747.778A.763.763,0,0,1,114.164,44.882Zm.266,4.994a1.137,1.137,0,1,1-1.092,1.135A1.114,1.114,0,0,1,114.43,49.875Zm-4.629,3.1a1.083,1.083,0,0,1,1.375-.73,1.147,1.147,0,0,1,.7,1.432,1.083,1.083,0,0,1-1.377.728,1.144,1.144,0,0,1-.7-1.43Zm-2.264-.765a.819.819,0,0,1,1.04-.552.868.868,0,0,1,.531,1.083.82.82,0,0,1-1.041.551.867.867,0,0,1-.53-1.082Zm2.1,10.332a.728.728,0,0,1-1.043.172.8.8,0,0,1-.164-1.086.728.728,0,0,1,1.043-.171.8.8,0,0,1,.164,1.085Zm1.316-2.217a.8.8,0,0,1-1.152.189.882.882,0,0,1-.183-1.2.806.806,0,0,1,1.154-.191.883.883,0,0,1,.181,1.2Zm1.77-2.065a1.063,1.063,0,0,1-1.524.25,1.165,1.165,0,0,1-.242-1.585,1.066,1.066,0,0,1,1.526-.253,1.167,1.167,0,0,1,.241,1.588Zm-.137-3.52a1.577,1.577,0,1,1,1.576,1.639A1.608,1.608,0,0,1,112.588,54.737Zm2.584,3.847a1.167,1.167,0,0,1,.24-1.588,1.065,1.065,0,0,1,1.526.252,1.164,1.164,0,0,1-.241,1.585,1.064,1.064,0,0,1-1.524-.249Zm2.923,2.252a.8.8,0,0,1-1.153-.189.883.883,0,0,1,.182-1.2.8.8,0,0,1,1.153.192.88.88,0,0,1-.182,1.2Zm1.637,1.874a.728.728,0,0,1-1.043-.172.8.8,0,0,1,.165-1.085.727.727,0,0,1,1.042.172.8.8,0,0,1-.164,1.085Zm.692-8.9a.82.82,0,0,1-1.041-.552.867.867,0,0,1,.532-1.082.82.82,0,0,1,1.04.551.868.868,0,0,1-.531,1.083Zm2.269-1.143a.742.742,0,0,1-.94-.5.783.783,0,0,1,.48-.978.741.741,0,0,1,.941.5.783.783,0,0,1-.48.979Z" transform="translate(-102.095 -41.682)" fill="#00253d"/>
</svg>
