<svg xmlns="http://www.w3.org/2000/svg" width="20" height="20" viewBox="0 0 20 20">
  <path id="icon-email" d="M12,22a9.671,9.671,0,0,1-3.875-.788,10.078,10.078,0,0,1-5.337-5.337A9.671,9.671,0,0,1,2,12a9.64,9.64,0,0,1,.788-3.887A10.117,10.117,0,0,1,8.125,2.787,9.681,9.681,0,0,1,12,2a9.651,9.651,0,0,1,3.887.787,10.15,10.15,0,0,1,5.325,5.326A9.64,9.64,0,0,1,22,12v1.45a3.464,3.464,0,0,1-1.012,2.512A3.341,3.341,0,0,1,18.5,17a3.6,3.6,0,0,1-1.675-.4,3.754,3.754,0,0,1-1.275-1.05A4.976,4.976,0,0,1,12,17a5,5,0,0,1-5-5,4.993,4.993,0,0,1,5-5,4.992,4.992,0,0,1,5,5v1.45a1.464,1.464,0,0,0,.45,1.137,1.541,1.541,0,0,0,2.1,0A1.464,1.464,0,0,0,20,13.45V12a7.7,7.7,0,0,0-2.363-5.638A7.7,7.7,0,0,0,12,4,7.7,7.7,0,0,0,6.362,6.362,7.7,7.7,0,0,0,4,12a7.7,7.7,0,0,0,2.362,5.637A7.7,7.7,0,0,0,12,20h5v2Zm0-7a2.988,2.988,0,0,0,3-3,2.988,2.988,0,0,0-3-3,2.988,2.988,0,0,0-3,3,2.988,2.988,0,0,0,3,3Z" transform="translate(-2 -2)" fill="#0066a4"/>
</svg>
