<svg xmlns="http://www.w3.org/2000/svg" width="24" height="24" viewBox="0 0 24 24">
  <g id="icon-editor--selecionar" transform="translate(-143.232 -73.226)">
    <path id="Path_961" data-name="Path 961" d="M152.372,85.976h-7.031a2.112,2.112,0,0,0-2.109,2.109v7.031a2.112,2.112,0,0,0,2.109,2.109h7.031a2.112,2.112,0,0,0,2.109-2.109V88.085a2.112,2.112,0,0,0-2.109-2.109Zm.7,9.14a.7.7,0,0,1-.7.7h-7.031a.7.7,0,0,1-.7-.7V88.085a.7.7,0,0,1,.7-.7h7.031a.7.7,0,0,1,.7.7v7.031Zm-2.607-17.465-2.315,2.315-.909-.909a.7.7,0,0,0-.995.995l1.406,1.406a.7.7,0,0,0,.995,0l2.812-2.812a.7.7,0,1,0-.994-.994Zm14.653,8.325h-7.031a2.112,2.112,0,0,0-2.109,2.109v7.031a2.112,2.112,0,0,0,2.109,2.109h7.031a2.112,2.112,0,0,0,2.109-2.109V88.085a2.113,2.113,0,0,0-2.11-2.109Zm.7,9.14a.7.7,0,0,1-.7.7h-7.031a.7.7,0,0,1-.7-.7V88.085a.7.7,0,0,1,.7-.7h7.031a.7.7,0,0,1,.7.7ZM163.218,90.4,160.9,92.716l-.909-.909A.7.7,0,0,0,159,92.8l1.406,1.406a.7.7,0,0,0,.995,0l2.812-2.812a.7.7,0,1,0-.994-.994Zm1.9-17.175h-7.031a2.112,2.112,0,0,0-2.109,2.109v7.031a2.112,2.112,0,0,0,2.109,2.11h7.031a2.112,2.112,0,0,0,2.109-2.109V75.336a2.113,2.113,0,0,0-2.11-2.109Zm.7,9.14a.7.7,0,0,1-.7.7h-7.031a.7.7,0,0,1-.7-.7V75.336a.7.7,0,0,1,.7-.7h7.031a.7.7,0,0,1,.7.7Zm-13.453-9.14h-7.031a2.112,2.112,0,0,0-2.109,2.109v7.031a2.112,2.112,0,0,0,2.109,2.11h7.031a2.112,2.112,0,0,0,2.11-2.109V75.336a2.112,2.112,0,0,0-2.109-2.109Zm.7,9.14a.7.7,0,0,1-.7.7h-7.031a.7.7,0,0,1-.7-.7V75.336a.7.7,0,0,1,.7-.7h7.031a.7.7,0,0,1,.7.7v7.031Z" fill="#0066a4"/>
  </g>
</svg>
