<svg xmlns="http://www.w3.org/2000/svg" width="53.37" height="53.37" viewBox="0 0 53.37 53.37">
  <g id="icon-linkedin" transform="translate(-1639.691 -2275.46)">
    <path id="Path_446" data-name="Path 446" d="M1664.36,2275.46h4.031q21.462,3.212,24.67,24.67v4.031q-3.211,21.459-24.67,24.669h-4.031q-21.461-3.21-24.669-24.669v-4.031Q1642.9,2278.665,1664.36,2275.46Zm-11.86,14.7c0,3.525,3.938,4.111,5.931,2.848,1.9-1.2,1.371-4.285.474-5.217a3.838,3.838,0,0,0-3.8-.712C1653.23,2287.55,1652.5,2288.48,1652.5,2290.16Zm25.62,5.93a8.975,8.975,0,0,0-5.219-.235c-1.656.453-2.589,1.758-3.559,2.37v-2.135h-6.4V2315.3h6.4V2302.97a3.849,3.849,0,0,1,5.456-1.661c2.737,2.087.366,10.1,1.187,14h6.4C1682.18,2307.47,1683.77,2298.44,1678.12,2296.09Zm-25.15,0V2315.3h6.405V2296.09Z" fill="#0065a4" fill-rule="evenodd"/>
  </g>
</svg>
