<svg xmlns="http://www.w3.org/2000/svg" width="169.076" height="112.689" viewBox="0 0 169.076 112.689">
  <g id="icon-diploma" transform="translate(-1494.107 -1195.124)">
    <g id="Group_133" data-name="Group 133">
      <path id="Path_700" data-name="Path 700" d="M1607.16,1268.46c3.391,6.285,11.923,12.731,13,18-6.412.745-10.166-1.167-16-1-2.791,3.543-2.076,10.591-3,16-1.3,4.566-3.266-2.213-4-3-4.174-4.47-11.074-11.192-14-17-9.738,4.5-18.639,8.294-28,13-8.546,4.3-17.256,11.55-27,13-25.993,3.869-44.029-24.86-28-45,8.74-10.981,37.709-20.787,62-33,11.454-5.759,21.388-11.247,31-16,11.021-5.45,21.313-12.308,31-16,33.721-12.852,52.2,30.683,28,49C1641.55,1254.49,1622.82,1259.5,1607.16,1268.46Zm47-37c4.559-11.678-1.61-21.611-7-25-16.049-10.091-40.281,12.892-54,16,2.255,4.138,7.8,4.492,11,8,5.885,6.445,7.731,15.9,6,27C1621.95,1249.27,1649.07,1244.5,1654.16,1231.46Zm-69,21c-1.162-5.178-6.785-10.508-10-12-14.712-6.829-32.559,9.393-44,14,14.418,3.213,19.77,18.676,19,34C1563.73,1278.49,1590.5,1276.25,1585.16,1252.46Zm-71,46c10.177,3.861,24.468-1.388,27-12,4.2-17.622-8.8-26.467-21-25C1498.36,1264.08,1498.28,1292.43,1514.16,1298.46Z" fill="#0065a4" fill-rule="evenodd"/>
    </g>
  </g>
</svg>
