<svg xmlns="http://www.w3.org/2000/svg" width="100" height="98.244" viewBox="0 0 100 98.244">
  <g id="icon-oe1" transform="translate(0.01 -0.01)">
    <path id="Path_916" data-name="Path 916" d="M48.878,90.938v2.738A44.287,44.287,0,0,1,4.94,54.508l-3.616.205,4.7-5.251,5.257,4.693-3.6.2a41.343,41.343,0,0,0,41.194,36.59M92.8,44.41A44.289,44.289,0,0,0,48.878,5.242V7.973a41.338,41.338,0,0,1,41.194,36.59l-3.6.205,5.257,4.7,4.693-5.257-3.616.2Zm4.232,28.724c-.128,0-.256.013-.385.026a3.1,3.1,0,0,0-2.981-2.244,3.031,3.031,0,0,0-1,.167,4.532,4.532,0,0,0-8.809,1.167,4.05,4.05,0,0,0-1.289-.205,4.171,4.171,0,0,0-3.052,1.327,6.618,6.618,0,0,1,2.071,4.8,6.426,6.426,0,0,1-.314,1.994,4.153,4.153,0,0,0,1.3.212h10.8a3.666,3.666,0,0,0,2.9-1.436,2.99,2.99,0,0,0,.757.1,2.959,2.959,0,1,0,0-5.918M21.635,10.993A7.1,7.1,0,0,1,27.2,13.9a7.292,7.292,0,0,1,3.078.968h2.539A4.411,4.411,0,0,0,36.3,13.147a3.556,3.556,0,1,0,.449-6.956A3.722,3.722,0,0,0,31.977,3.7,5.441,5.441,0,0,0,21.4,5.094a5.127,5.127,0,0,0-1.545-.244A5,5,0,0,0,15.7,7.063,9.131,9.131,0,0,1,21.629,11m27.948,67.18a7.718,7.718,0,0,0,2.084,5.257c-.923.077-1.853.122-2.8.122A34.033,34.033,0,0,1,20.757,30.311c.192-.186.378-.372.551-.564A7.373,7.373,0,0,0,24.963,28.3a7.468,7.468,0,0,0,1.648.192,7.318,7.318,0,0,0,7.309-7.309,7.393,7.393,0,0,0-.308-2.109,34.031,34.031,0,0,1,41.6,51.978,6.5,6.5,0,0,0-2.3-1.52,31.106,31.106,0,0,0,6.924-15.356l-3.635.628a.792.792,0,0,1-.628-.16l-3.59-2.86a.82.82,0,0,1-.3-.622v-3.4a.8.8,0,0,1,.1-.385l3.4-6.1a.8.8,0,0,0,.1-.385V37.569a.794.794,0,0,1,.43-.7l1.455-.763A31.549,31.549,0,0,0,64.618,22.444l-2.475,1.244a1.248,1.248,0,0,0-.539.539l-1.141,2.359a1.194,1.194,0,0,1-1.693.494,1.165,1.165,0,0,1-.378-.372c-.487-.763-2.045-3.2-2.1-3.449-.058-.224-.583-1.808-.84-2.571a1.193,1.193,0,0,0-.507-.641l-2.776-1.7a29.571,29.571,0,0,0-3.3-.173c-.359,0-.718.013-1.077.026l3.8,4.276a1.013,1.013,0,0,1,.231.885l-.276,1.263a1,1,0,0,1-1.513.635l-2.148-1.34a1.018,1.018,0,0,1-.468-.853v-.494a1.033,1.033,0,0,0-.4-.808l-1.116-.84a.981.981,0,0,0-.75-.186l-1.225.173.141,1.16a1.078,1.078,0,0,1-.385.962L39.389,26.5a1.077,1.077,0,0,0-.237,1.391L39.844,29a1.036,1.036,0,0,0,.449.4l3.334,1.558a1.067,1.067,0,0,0,1.487-.718l.705-2.988a1.066,1.066,0,0,1,1.378-.763L51.07,27.81a1.048,1.048,0,0,1,.455.308l2.86,3.283a1.07,1.07,0,0,1,.071,1.314l-2.635,3.706a1.143,1.143,0,0,1-.487.378l-2.9,1.109a1.057,1.057,0,0,0-.519.423l-3.251,5.129a1.063,1.063,0,0,1-.9.5h-4.86a1.058,1.058,0,0,0-1.039.827l-.321,1.449a1.045,1.045,0,0,0,.462,1.122l1.327.853a1.038,1.038,0,0,0,.814.141l.853-.2a1.085,1.085,0,0,1,1.071.378l3.167,3.994a1.047,1.047,0,0,0,.724.4.824.824,0,0,1,.218.045l.282-.5a1.262,1.262,0,0,1,1.109-.648h3.783a1.3,1.3,0,0,1,.648.18l4.347,2.565a1.313,1.313,0,0,1,.468.487l.494.917a1.269,1.269,0,0,0,.7.59l5.931,2.077a1.281,1.281,0,0,1,.763,1.693L62.438,65.8A8.175,8.175,0,0,0,56.8,70.44a7.745,7.745,0,0,0-7.232,7.713m-1.353-14.24-1.436-.866a1.284,1.284,0,0,1-.481-.532L44.569,59a1.3,1.3,0,0,1-.09-.891l.731-2.744a1.068,1.068,0,0,1-.417-.455l-.641-1.321a1.09,1.09,0,0,0-.526-.507l-2.1-.936-.051-.019-7.142-3.667a.966.966,0,0,1-.314-.244L25.912,38.96a1,1,0,0,1-.256-.616l-.314-3.982a1.119,1.119,0,0,0-.314-.673l-1.962-1.943a31.29,31.29,0,0,0,24.9,49.016l-.91-1.782a1.2,1.2,0,0,1-.122-.763L48.814,65.17a1.282,1.282,0,0,0-.6-1.269M24.3,25.092a4.57,4.57,0,1,0,2.308-8.514,4.7,4.7,0,0,0-1.007.109A4.363,4.363,0,0,0,21.462,13.7a4.243,4.243,0,0,0-1.4.231A6.373,6.373,0,0,0,7.665,15.571a5.8,5.8,0,0,0-1.808-.289,5.863,5.863,0,1,0,0,11.727,5.72,5.72,0,0,0,2.834-.731,6.327,6.327,0,0,0,11.246.686,4.78,4.78,0,0,0,.609.038,4.665,4.665,0,0,0,3.77-1.917m45.913,61.9a4.546,4.546,0,0,0-5.956,4.334,4.549,4.549,0,0,0,4.552,4.552,4.475,4.475,0,0,0,2.2-.571,4.9,4.9,0,0,0,8.72.539,3.845,3.845,0,0,0,.474.032,3.609,3.609,0,0,0,2.924-1.494,3.548,3.548,0,1,0,1.789-6.61,3.469,3.469,0,0,0-.776.09,3.393,3.393,0,0,0-4.309-2.141,4.946,4.946,0,0,0-9.617,1.269m4.738-12.752a4.247,4.247,0,0,0-.859.09,3.714,3.714,0,0,0-3.526-2.545,3.835,3.835,0,0,0-1.186.2,5.422,5.422,0,0,0-10.541,1.4,4.868,4.868,0,0,0-1.539-.25A4.991,4.991,0,1,0,59.726,82.5a5.4,5.4,0,0,0,4.469,3.212,7.3,7.3,0,0,1,4.02-1.654,7.712,7.712,0,0,1,6.956-4.43,7.632,7.632,0,0,1,3.052.641,3.859,3.859,0,0,0,.648-2.129,3.9,3.9,0,0,0-3.892-3.892" fill="#fff"/>
  </g>
</svg>
