<svg xmlns="http://www.w3.org/2000/svg" width="192.147" height="114.232" viewBox="0 0 192.147 114.232">
  <g id="icon-peixe" transform="translate(-677.927 -1185.53)">
    <g id="Group_137" data-name="Group 137">
      <path id="Path_703" data-name="Path 703" d="M761.125,1185.53h1.32c11.452,5.275,23.2,10.256,32.355,17.827,37.328.75,61.492,14.663,75.274,38.959v3.3c-14.683,25.569-44.519,42.375-85.179,37.639-9.446,6.4-20.126,11.565-31.034,16.507h-1.98c-4.4-6.189,2.283-15.991,3.961-22.45-12.281-5.546-24.7-10.96-35-18.488-5.906,4.144-12.107,9.069-19.148,12.545-7.011,3.462-14.887,7.065-23.111,7.264.107-.767-.146-1.175-.66-1.32v-1.98c4.764-11.523,10.276-22.3,18.488-30.373a118.089,118.089,0,0,1-18.488-31.695v-2.642c4.445-2.916,10.206.275,15.848,2.642,10.406,4.363,20.427,11.033,27.732,16.507a140.378,140.378,0,0,1,42.919-20.469C763.927,1202.74,754.747,1188.35,761.125,1185.53Zm10.564,27.07c-19.025,6.286-36.294,14.329-51.5,24.431a96.008,96.008,0,0,0-33.675-19.809c3.741,11.226,11.073,18.861,17.828,27.071-6.566,8.182-13.573,15.92-17.828,26.412,13.888-3.939,23.68-11.975,34.335-19.148,12.116,9.454,27.635,15.5,42.259,22.45-1.129,6.574-4.268,11.14-5.942,17.168,4.87-.776,8.642-3.979,13.206-6.6,3.488-2.006,10.047-6.734,13.206-7.264,7.079-1.186,16.817,1.382,25.091.66,3.726-.324,6.824-1.631,10.565-1.98-4.63-8.654-9.267-19.891-9.245-32.354.023-12.606,5.257-22.959,9.245-31.694-7.586-2.1-17.777-1.592-26.412-2.642a109.235,109.235,0,0,0-26.412-15.187C766.957,1201.49,771.56,1204.81,771.689,1212.6Zm54.8,1.99c-13.649,12.2-13.332,47.121,0,59.427,15.323-7.347,29.944-15.4,37.637-30.373C856.038,1229.5,843.229,1220.08,826.494,1214.59Z" fill="#0065a4" fill-rule="evenodd"/>
      <path id="Path_704" data-name="Path 704" d="M842.341,1234.4c4.306,10.972-10.317,12.623-11.226,4.622C830.5,1233.58,837.076,1229.8,842.341,1234.4Z" fill="#0065a4" fill-rule="evenodd"/>
    </g>
  </g>
</svg>
