<svg xmlns="http://www.w3.org/2000/svg" width="20" height="20" viewBox="0 0 20 20">
  <path id="icon-search" d="M21.444,23l-7-7a6.621,6.621,0,0,1-1.917,1.056,6.772,6.772,0,0,1-2.306.389,6.971,6.971,0,0,1-5.124-2.1A6.973,6.973,0,0,1,3,10.222,6.973,6.973,0,0,1,5.1,5.1,6.971,6.971,0,0,1,10.222,3a6.974,6.974,0,0,1,5.126,2.1,6.974,6.974,0,0,1,2.1,5.126,6.772,6.772,0,0,1-.389,2.306A6.621,6.621,0,0,1,16,14.444l7,7ZM10.222,15.222a4.977,4.977,0,0,0,5-5,4.977,4.977,0,0,0-5-5,4.977,4.977,0,0,0-5,5,4.977,4.977,0,0,0,5,5Z" transform="translate(-3 -3)" fill="#fff"/>
</svg>
