<svg xmlns="http://www.w3.org/2000/svg" width="25" height="25" viewBox="0 0 25 25">
  <g id="icon-editor--representar" transform="translate(-70)">
    <path id="Path_979" data-name="Path 979" d="M182,140h2.5v2.5H182Z" transform="translate(-107 -133.75)" fill="#0066a4"/>
    <path id="Path_980" data-name="Path 980" d="M182,252h2.5v2.5H182Z" transform="translate(-107 -240.75)" fill="#0066a4"/>
    <path id="Path_981" data-name="Path 981" d="M182,364h2.5v2.5H182Z" transform="translate(-107 -347.75)" fill="#0066a4"/>
    <path id="Path_982" data-name="Path 982" d="M294,140h10v2.5H294Z" transform="translate(-214 -133.75)" fill="#0066a4"/>
    <path id="Path_983" data-name="Path 983" d="M294,252h10v2.5H294Z" transform="translate(-214 -240.75)" fill="#0066a4"/>
    <path id="Path_984" data-name="Path 984" d="M294,364h10v2.5H294Z" transform="translate(-214 -347.75)" fill="#0066a4"/>
    <path id="Path_985" data-name="Path 985" d="M91.25,0H73.75A3.683,3.683,0,0,0,70,3.75v17.5A3.683,3.683,0,0,0,73.75,25h17.5A3.683,3.683,0,0,0,95,21.25V3.75A3.683,3.683,0,0,0,91.25,0ZM92.5,21.25a1.181,1.181,0,0,1-1.25,1.25H73.75a1.181,1.181,0,0,1-1.25-1.25V3.75A1.181,1.181,0,0,1,73.75,2.5h17.5A1.181,1.181,0,0,1,92.5,3.75Z" fill="#0066a4"/>
  </g>
</svg>
