<svg xmlns="http://www.w3.org/2000/svg" width="24.96" height="21.047" viewBox="0 0 24.96 21.047">
  <path id="icon-oe" d="M124.7,75.908l-.555-.31-3.125,2.189a9.842,9.842,0,1,1-.711-1.053l-1.495,1.051a7.957,7.957,0,1,0,.705,1.053l-.719.5a7.139,7.139,0,1,1-.7-1.054l-1.5,1.052A5.282,5.282,0,1,0,117.3,80.4l-.727.509a4.437,4.437,0,1,1-.682-1.061l-1.5,1.057a2.585,2.585,0,1,0,.754,1.823,2.545,2.545,0,0,0-.11-.739l-.776.543a1.653,1.653,0,0,1,.012.2,1.717,1.717,0,1,1-.611-1.309l-1.353.952a.437.437,0,0,0-.109.6l14.329-10.036.234.336.945.528ZM123.08,73.6l.177,1.068,3-2.108-.177-1.068Z" transform="translate(-102.743 -71.489)" fill="#00253d" fill-rule="evenodd"/>
</svg>
