<svg xmlns="http://www.w3.org/2000/svg" width="89.106" height="100" viewBox="0 0 89.106 100">
  <g id="icon-oe2" transform="translate(-0.022 -0.006)">
    <g id="Group_346" data-name="Group 346" transform="translate(0.022 0.006)">
      <path id="Path_917" data-name="Path 917" d="M84.631,62.686a8.993,8.993,0,0,0-11.2,1.8l-8.324-4.78a22.492,22.492,0,0,0,1.425-15.576,22.222,22.222,0,0,0-1.413-3.922l8.312-4.8A8.92,8.92,0,0,0,77.808,38.1a9.16,9.16,0,0,0,2.34.3,8.977,8.977,0,1,0-8.974-8.974,9.079,9.079,0,0,0,.448,2.813L63.291,37.1a22.535,22.535,0,0,0-16.819-9.749V17.779a8.963,8.963,0,1,0-3.664.006v9.6A22.557,22.557,0,0,0,26,37.1l-8.318-4.8a9.051,9.051,0,1,0-1.835,3.159l8.33,4.875a22.634,22.634,0,0,0,0,19.385l-8.318,4.8a8.982,8.982,0,1,0,1.829,3.172l8.337-4.812a22.5,22.5,0,0,0,16.8,9.749v9.6a8.981,8.981,0,1,0,3.664,0V72.568A22.675,22.675,0,0,0,63.31,62.818l8.312,4.8a8.98,8.98,0,1,0,13.01-4.963l.013.038ZM77.48,24.905a4.385,4.385,0,1,1-.17.05l.17-.095v.05ZM14.279,71.9a5.336,5.336,0,1,1-5.146-6.817,5.11,5.11,0,0,1,1.387.183A5.331,5.331,0,0,1,14.3,71.78l-.032.12ZM39.315,8.982A5.322,5.322,0,1,1,44.637,14.3a5.319,5.319,0,0,1-5.322-5.322M10.52,34.623A5.326,5.326,0,0,1,6.888,24.609a5.214,5.214,0,0,1,.87-.233A5.326,5.326,0,1,1,11.391,34.39a6,6,0,0,1-.877.24M49.959,90.963a5.322,5.322,0,1,1-5.322-5.329,5.319,5.319,0,0,1,5.322,5.329m-.4-22.62a11.933,11.933,0,1,1,.006,0m35.195,4.78a5.03,5.03,0,1,1,.013-.019l-.013.025Z" transform="translate(-0.022 -0.006)" fill="#fff"/>
      <path id="Path_918" data-name="Path 918" d="M69.7,64.377a8.576,8.576,0,0,1,2.434,2.106A1.827,1.827,0,1,0,75,64.213a12.358,12.358,0,0,0-17.367-1.961,12.511,12.511,0,0,0-3,3.481c-.183.328-.341.675-.5,1.015H52.389a1.829,1.829,0,1,0,0,3.658H53.1a10.845,10.845,0,0,0-.1,1.5,11.742,11.742,0,0,0,.1,1.495h-.706a1.829,1.829,0,1,0,0,3.658h1.766a10.688,10.688,0,0,0,.5,1.009,12.356,12.356,0,0,0,16.882,4.522,12.125,12.125,0,0,0,3.481-3,1.827,1.827,0,1,0-2.863-2.27,8.7,8.7,0,0,1-12.228,1.362,8.455,8.455,0,0,1-1.564-1.621h6.981a1.829,1.829,0,1,0,0-3.658H56.809a8.527,8.527,0,0,1-.158-1.495,8.149,8.149,0,0,1,.145-1.513h8.532a1.826,1.826,0,1,0,0-3.651H58.361a8.7,8.7,0,0,1,11.332-2.352" transform="translate(-18.69 -22.003)" fill="#fff"/>
    </g>
  </g>
</svg>
