<svg xmlns="http://www.w3.org/2000/svg" width="23.98" height="20.59" viewBox="0 0 23.98 20.59">
  <g id="icon-socioeconomia" transform="translate(-0.01)">
    <g id="Group_434" data-name="Group 434">
      <path id="Path_1002" data-name="Path 1002" d="M15.43,2.57h.86V.43a.434.434,0,0,0-.13-.3.434.434,0,0,0-.3-.13H8.15a.427.427,0,0,0-.43.43V2.57H9.43V1.71h1.71v.86h1.71V1.71h1.71v.86h.86Z" fill="#00253d"/>
      <path id="Path_1003" data-name="Path 1003" d="M18.5,6.79l-.5-3h0a.421.421,0,0,0-.42-.36H6.43A.439.439,0,0,0,6,3.79l-.5,3,.54-.14L11.61,5.2h.1A.929.929,0,0,1,12,5.15h.22l5.74,1.5.53.15Z" fill="#00253d"/>
      <path id="Path_1004" data-name="Path 1004" d="M5.35,7.71l-.91.24-2.4.62a.481.481,0,0,0-.27.19.427.427,0,0,0-.05.33L4.04,19.14a1.3,1.3,0,0,1-1.03.57c-.53,0-.78-.26-1.18-.71A2.268,2.268,0,0,0,.01,18v.86c.53,0,.78.26,1.18.71a2.268,2.268,0,0,0,1.82,1,2.294,2.294,0,0,0,1.82-1c.39-.45.65-.71,1.18-.71s.78.26,1.18.71a2.268,2.268,0,0,0,1.82,1,2.294,2.294,0,0,0,1.82-1,1.982,1.982,0,0,1,.75-.63V6.1L6.27,7.48l-.91.23Z" fill="#00253d"/>
      <path id="Path_1005" data-name="Path 1005" d="M22.17,19c-.39.45-.65.71-1.17.71a1.3,1.3,0,0,1-1.05-.56L22.28,9.09a.476.476,0,0,0-.05-.33.4.4,0,0,0-.27-.19l-2.4-.63-.91-.23-.91-.24L12.43,6.09V18.95a2.181,2.181,0,0,1,.75.63,2.145,2.145,0,0,0,3.64,0c.4-.48.65-.73,1.18-.73s.78.26,1.18.71a2.134,2.134,0,0,0,3.64,0c.39-.45.64-.71,1.17-.71v-.86a2.328,2.328,0,0,0-1.83,1h0Z" fill="#00253d"/>
    </g>
  </g>
</svg>
