<svg xmlns="http://www.w3.org/2000/svg" width="44" height="44" viewBox="0 0 44 44">
  <g id="icon-alertalt2" transform="translate(-71.684 -0.43)">
    <path id="Path_960" data-name="Path 960" d="M111.256,9.25a21.95,21.95,0,1,1-5.174-4.971l-.028.039a1.929,1.929,0,0,1,.831,1.563,1.972,1.972,0,0,1-1.971,1.974,1.939,1.939,0,0,1-1.3-.509l-.013.016a17.942,17.942,0,1,0,4.506,4.173l.023-.016a1.927,1.927,0,0,1-.387-1.106,1.948,1.948,0,0,1,1.948-1.948,1.906,1.906,0,0,1,1.535.8ZM95.63,14.091V24.927a1.948,1.948,0,0,1-3.9,0V14.091a1.948,1.948,0,0,1,3.9,0ZM93.682,28.822a1.948,1.948,0,1,1-1.948,1.948A1.947,1.947,0,0,1,93.682,28.822Z" fill-rule="evenodd"/>
  </g>
</svg>
