<svg id="icon-oe3" xmlns="http://www.w3.org/2000/svg" width="68.64" height="100" viewBox="0 0 68.64 100">
  <g id="Group_347" data-name="Group 347">
    <path id="Path_919" data-name="Path 919" d="M36.331.06C6.739-1.6-10.412,32.05,6.957,54.975A62.878,62.878,0,0,1,16.5,73.184H52.392A81.94,81.94,0,0,1,62.309,54.07C77.676,32.44,63.544,2.167,36.331.06m-5.616,19.16a4.359,4.359,0,0,1,7.175,0l2.22,3.257,4.07-2.352a.8.8,0,0,1,1.2.826l-1.2,7.479-.172,1.077a.8.8,0,0,1-1.084.621l-8.113-3.079a.807.807,0,0,1-.112-1.453l2.544-1.467-2.075-3.039a1.058,1.058,0,0,0-1.744-.007L28.31,28.555l-2.682-1.9,5.087-7.433ZM29.321,48.468H18.942a4.343,4.343,0,0,1-3.587-6.792l3.812-5.57-2.861-1.652a.8.8,0,0,1,.112-1.447L23,30.5l1.52-.588a.79.79,0,0,1,1.077.628l1.387,8.562a.811.811,0,0,1-1.2.832l-3.772-2.18-3.951,5.768a1.032,1.032,0,0,0-.059,1.1,1.018,1.018,0,0,0,.932.568H29.308v3.284Zm20.355,0H40.592v3.825a.8.8,0,0,1-1.315.621l-5.47-4.446-1.249-1.024a.8.8,0,0,1,0-1.249l6.719-5.477a.8.8,0,0,1,1.315.628v3.839h9.084a1.023,1.023,0,0,0,.932-.568,1.011,1.011,0,0,0-.073-1.1l-6.9-10.082,2.881-1.619,6.732,9.851a4.336,4.336,0,0,1-3.574,6.792" transform="translate(0 -0.001)" fill="#fff"/>
    <path id="Path_920" data-name="Path 920" d="M25.151,126.728H59.017a5.674,5.674,0,0,0,.244-1.579V116.23H24.9v8.919a5.674,5.674,0,0,0,.244,1.579" transform="translate(-8.449 -39.44)" fill="#fff"/>
    <path id="Path_921" data-name="Path 921" d="M31.87,136.98a13.074,13.074,0,0,0,25.152,0Z" transform="translate(-10.814 -46.481)" fill="#fff"/>
  </g>
</svg>
