<svg xmlns="http://www.w3.org/2000/svg" width="54.184" height="53.069" viewBox="0 0 54.184 53.069">
  <g id="icon-facebook" transform="translate(-1500.781 -2275.514)">
    <path id="Path_444" data-name="Path 444" d="M1524.87,2275.72c14.478-1.656,24.313,6.977,27.9,15.437,7.916,18.635-6.722,38.2-26.123,37.4-17.762-.725-32.04-19.639-23.154-38.591C1506.69,2283.17,1515.06,2276.85,1524.87,2275.72Zm-.59,22.56h-5.937v5.935c1.805.374,5.114-.758,5.937.595v16.029h6.531v-16.624h6.531v-5.935c-2-.377-5.515.764-6.531-.595.07-1.711-.324-3.888.594-4.749h5.938V2287C1528.21,2285.99,1523.17,2289.05,1524.28,2298.28Z" fill="#0065a4" fill-rule="evenodd"/>
  </g>
</svg>
