<svg xmlns="http://www.w3.org/2000/svg" width="51.576" height="52.099" viewBox="0 0 51.576 52.099">
  <g id="icon-twitter" transform="translate(-1572.647 -2276.006)">
    <path id="Path_445" data-name="Path 445" d="M1594.15,2276.46c38-6.118,40.515,51.645,4.54,51.645-23.083,0-34.939-29.75-18.16-45.4C1583.79,2279.66,1588.02,2277.45,1594.15,2276.46Zm21,14.75c-1.608.1-2.365,1.04-3.974,1.135-4.825-4.586-12.2-.726-11.917,6.242-5.986-.633-9.692-3.549-13.053-6.81-2.03,2.71-.4,6.282,1.135,8.513-1.073.128-1.252-.639-2.27-.567.207,3.576,2.5,5.065,4.539,6.811-.849.1-2.094-.2-2.27.567a12.28,12.28,0,0,0,5.675,4.54c-2.01,1.774-5.664,1.9-8.513,2.838,13.232,7.189,29.592-1.5,28.376-17.593,1.321-.23,3.6-2.4,2.271-3.406-.147.8-1.245.648-1.7,1.136C1613.67,2293.14,1615.14,2292.91,1615.15,2291.21Z" fill="#0065a4" fill-rule="evenodd"/>
  </g>
</svg>
