<svg xmlns="http://www.w3.org/2000/svg" width="18" height="20" viewBox="0 0 18 20">
  <path id="icon-calendar" d="M5,22a2,2,0,0,1-2-2V6A2.006,2.006,0,0,1,5,4H6V2H8V4h8V2h2V4h1a2.006,2.006,0,0,1,2,2V20a2,2,0,0,1-2,2Zm0-2H19V10H5ZM5,8H19V6H5ZM5,8V8Zm7,6a.982.982,0,1,1,.713-.288A.965.965,0,0,1,12,14ZM8,14a.982.982,0,1,1,.713-.288A.968.968,0,0,1,8,14Zm8,0a.984.984,0,1,1,.712-.288A.965.965,0,0,1,16,14Zm-4,4a.982.982,0,1,1,.713-.288A.965.965,0,0,1,12,18ZM8,18a.982.982,0,1,1,.713-.288A.968.968,0,0,1,8,18Zm8,0a.984.984,0,1,1,.712-.288A.965.965,0,0,1,16,18Z" transform="translate(-3 -2)" fill="#c6c6c6"/>
</svg>
