<svg id="icon-oe7" xmlns="http://www.w3.org/2000/svg" width="83.925" height="100" viewBox="0 0 83.925 100">
  <g id="Group_350" data-name="Group 350">
    <path id="Path_927" data-name="Path 927" d="M73.626,64.042A38.022,38.022,0,1,0,7.888,38.058c0,1.221.073,2.427.182,3.619-1.315,2.674-3.1,6.213-4.607,9.17-.792,1.562-1.5,2.957-2.02,3.967-.262.516-.465.93-.618,1.221-.073.153-.131.262-.174.349L.6,56.493l-.051.094V56.6A6.229,6.229,0,0,0-.01,59.2a6.362,6.362,0,0,0,6.358,6.365H9.189L9.16,76.918h0a8.156,8.156,0,0,0,8.153,8.16H29.251l4.062,13.646a1.74,1.74,0,0,0,.85,1.054,1.786,1.786,0,0,0,1.352.138l43.162-13.13a1.751,1.751,0,0,0,1.17-2.194L73.612,64.057ZM36.2,96.014l-3.931-13.2a1.759,1.759,0,0,0-1.693-1.264H17.32A4.56,4.56,0,0,1,14.05,80.2,4.624,4.624,0,0,1,12.7,76.918h0l.036-13.108a1.741,1.741,0,0,0-.516-1.25,1.764,1.764,0,0,0-1.257-.523H6.355a2.84,2.84,0,0,1-2.587-3.982c.036-.073.131-.247.262-.516C5.149,55.344,9.138,47.5,11.456,42.8a1.852,1.852,0,0,0,.174-.966,34.486,34.486,0,1,1,68.761-3.771,34.278,34.278,0,0,1-10,24.284,1.775,1.775,0,0,0-.436,1.751l6.016,19.822-39.768,12.1Z" transform="translate(0.01 0.01)" fill="#fff"/>
    <path id="Path_928" data-name="Path 928" d="M75.15,40.151s-2.558-1.54-3.081-3.662,1.01-4.658,1.01-4.658a2.105,2.105,0,0,0-.015-2.013l-2.471-3.335a2.128,2.128,0,0,0-1.526-.654,2.071,2.071,0,0,0-.378.044,9.519,9.519,0,0,1-2.042.225,5.258,5.258,0,0,1-2.718-.639c-1.875-1.126-2.587-4.011-2.587-4.011a2.06,2.06,0,0,0-1.424-1.41l-4.1-.618h-.1a2.1,2.1,0,0,0-1.679.93s-1.533,2.543-3.655,3.074a3.829,3.829,0,0,1-.952.109,8.366,8.366,0,0,1-3.72-1.119,1.911,1.911,0,0,0-.981-.247,2.072,2.072,0,0,0-1.017.254l-3.335,2.471a2.125,2.125,0,0,0-.61,1.911s.719,2.885-.407,4.767c-1.126,1.86-4.018,2.58-4.018,2.58a2.115,2.115,0,0,0-1.41,1.424l-.618,4.113a2.1,2.1,0,0,0,.923,1.78s2.55,1.533,3.074,3.648-1.01,4.665-1.01,4.665a2.111,2.111,0,0,0,.015,2.005l2.471,3.335a2.083,2.083,0,0,0,1.526.654,1.584,1.584,0,0,0,.378-.044,9.155,9.155,0,0,1,2.042-.233,5.275,5.275,0,0,1,2.718.639c1.875,1.126,2.587,4.011,2.587,4.011a2.129,2.129,0,0,0,1.424,1.41l4.105.618h.1a2.127,2.127,0,0,0,1.686-.923S56.89,58.709,59,58.178a3.829,3.829,0,0,1,.952-.109,8.407,8.407,0,0,1,3.72,1.119,1.851,1.851,0,0,0,.988.247,1.951,1.951,0,0,0,1.01-.254L69.01,56.71a2.094,2.094,0,0,0,.61-1.911s-.719-2.877.407-4.759,4.018-2.587,4.018-2.587a2.063,2.063,0,0,0,1.4-1.424l.625-4.105a2.1,2.1,0,0,0-.923-1.773m-3.015,4.2A9.92,9.92,0,0,0,67,48.223a9.888,9.888,0,0,0-1.017,6.336l-1.475,1.1a10.993,10.993,0,0,0-4.563-1.112,7.7,7.7,0,0,0-1.8.211,9.857,9.857,0,0,0-5.2,3.757l-1.817-.269a9.927,9.927,0,0,0-3.866-5.137,8.727,8.727,0,0,0-4.534-1.126,13.85,13.85,0,0,0-1.795.116l-1.09-1.475a9.892,9.892,0,0,0,.894-6.351,9.866,9.866,0,0,0-3.757-5.2l.276-1.817a9.9,9.9,0,0,0,5.123-3.866,9.836,9.836,0,0,0,1.01-6.336l1.475-1.1a11.1,11.1,0,0,0,4.556,1.112,8.154,8.154,0,0,0,1.8-.211,9.911,9.911,0,0,0,5.2-3.764l1.817.276a9.854,9.854,0,0,0,3.858,5.123,8.688,8.688,0,0,0,4.541,1.141,13.727,13.727,0,0,0,1.795-.124l1.09,1.475a9.859,9.859,0,0,0-.894,6.358,9.864,9.864,0,0,0,3.771,5.2l-.276,1.809Z" transform="translate(-9.1 -5.302)" fill="#fff"/>
    <path id="Path_929" data-name="Path 929" d="M63.916,38.539a6.089,6.089,0,1,0,.007,0m-.174,9.65a4.8,4.8,0,0,1-4.149,2.34,4.7,4.7,0,0,1-2.478-.7A4.826,4.826,0,1,1,63.749,48.2" transform="translate(-14.004 -10.2)" fill="#fff"/>
  </g>
</svg>
