<svg id="icon-oe8" xmlns="http://www.w3.org/2000/svg" width="138" height="71.654" viewBox="0 0 138 71.654">
  <g id="Group_351" data-name="Group 351">
    <path id="Path_930" data-name="Path 930" d="M135.849,43.53C87.769,43.53,76.264,61.053,75.8,61.8a2.1,2.1,0,0,0-.324,1.144c0,.171-.068,4.31-6.47,4.31-6.035,0-6.453-3.628-6.47-4.31a2.081,2.081,0,0,0-.333-1.144C61.745,61.053,50.248,43.53,2.159,43.53A2.167,2.167,0,0,0,0,45.689V54.31a2.158,2.158,0,0,0,2.151,2.151h0c34.7,0,46.646,11.864,50.171,16.96a10.751,10.751,0,0,0,8.834,4.609H76.835a10.74,10.74,0,0,0,8.834-4.609c3.525-5.1,15.466-16.96,50.171-16.96A2.16,2.16,0,0,0,138,54.31V45.689a2.162,2.162,0,0,0-2.159-2.159m-2.159,8.638c-33.809.478-46.8,11.924-51.562,18.8a6.43,6.43,0,0,1-5.292,2.748H61.147a6.437,6.437,0,0,1-5.283-2.748c-4.754-6.88-17.754-18.325-51.571-18.8v-4.31C44,48.31,56.334,61.326,58.245,63.708c.367,3.09,2.9,7.861,10.738,7.861s10.37-4.763,10.738-7.853c1.955-2.424,14.3-15.406,53.952-15.859v4.31Z" transform="translate(0 -6.376)" fill="#fff"/>
    <path id="Path_931" data-name="Path 931" d="M7.579,35.219A2.153,2.153,0,0,0,9.729,37.37c41.354,0,58.425,24.676,58.587,24.923a2.158,2.158,0,0,0,3.585-.017c.162-.239,17.088-24.906,58.578-24.906a2.155,2.155,0,1,0,0-4.31c-36.54,0-54.882,17.924-60.379,24.5-5.5-6.572-23.839-24.5-60.379-24.5A2.149,2.149,0,0,0,7.57,35.219" transform="translate(-1.109 -4.843)" fill="#fff"/>
    <path id="Path_932" data-name="Path 932" d="M52.688,20.317h.9c.794,0,8.587-.563,13.665-6.658,1.238,2.714,3.952,7.11,8.57,6.658a1.107,1.107,0,0,0,1.016-1.127c0-.213.111-5.2-2.373-8.015,2.373-2.817,2.373-7.784,2.373-8.015a1.206,1.206,0,0,0-1.016-1.127C71.192,1.591,68.487,6,67.249,8.7,62.17,2.478,53.925,2.035,53.584,2.035h-.111a13.014,13.014,0,0,0-12.871,8.8c-.111.23,0,.452,0,.683a12.45,12.45,0,0,0,12.078,8.809M74.572,4.407C74.461,6.217,73.9,9.153,72.2,10.28a1.036,1.036,0,0,0-.452.9,1.4,1.4,0,0,0,.452.9c1.7,1.127,2.262,4.063,2.373,5.872-3.5-.563-5.3-5.531-5.753-6.777.341-1.366,2.262-6.214,5.753-6.777m-21.108-.1h0c.111,0,8.356.333,12.76,6.88-4.4,6.427-12.649,6.88-12.863,6.88a10.013,10.013,0,0,1-10.5-6.88,10.875,10.875,0,0,1,10.609-6.88" transform="translate(-5.939 -0.294)" fill="#fff"/>
    <path id="Path_933" data-name="Path 933" d="M100.153,14.92h.785a16.239,16.239,0,0,0,10.72-5.079c1.016,2.262,3.278,5.531,6.888,5.079a1.113,1.113,0,0,0,1.016-1.127c0-.452,0-4.063-1.809-6.316,1.809-2.262,1.809-5.872,1.809-6.333A1.182,1.182,0,0,0,118.547.026c-3.619-.341-5.753,2.936-6.888,5.07C107.485.248,101.152.026,100.819.026a10.521,10.521,0,0,0-10.388,7.11c-.111.23,0,.444,0,.674a9.856,9.856,0,0,0,9.713,7.11M117.079,2.39c-.119,1.468-.563,3.38-1.7,4.174-.341.1-.452.444-.452.9a1.181,1.181,0,0,0,.452.9c1.127.794,1.579,2.706,1.7,4.174-2.373-.674-3.73-4.071-4.063-5.079.452-1.127,1.809-4.515,4.063-5.079m-16.371-.119h0c.111,0,6.316.222,9.816,5.2-3.5,4.848-9.7,5.19-9.816,5.19H100.6a7.721,7.721,0,0,1-8.015-5.19c.444-1.238,2.364-5.2,8.126-5.2" transform="translate(-13.238 -0.001)" fill="#fff"/>
    <path id="Path_934" data-name="Path 934" d="M73.514,43.27H74.3a16.255,16.255,0,0,0,10.72-5.079c1.016,2.253,3.278,5.522,6.888,5.079a1.115,1.115,0,0,0,1.016-1.135c0-.452,0-4.071-1.81-6.325,1.81-2.253,1.81-5.864,1.81-6.316a1.19,1.19,0,0,0-1.016-1.118c-3.61-.341-5.761,2.928-6.888,5.061a15.835,15.835,0,0,0-10.831-5.061A10.51,10.51,0,0,0,63.8,35.486c-.119.23,0,.444,0,.674a9.872,9.872,0,0,0,9.713,7.119m16.934-12.53c-.111,1.468-.563,3.38-1.69,4.182-.333.1-.452.444-.452.9a1.187,1.187,0,0,0,.452.913c1.127.785,1.579,2.706,1.69,4.174-2.373-.683-3.721-4.071-4.071-5.087.461-1.118,1.81-4.515,4.071-5.07m-16.362-.119h0c.111,0,6.325.23,9.816,5.19-3.5,4.857-9.7,5.2-9.816,5.2h-.111a7.708,7.708,0,0,1-8.015-5.2c.452-1.229,2.373-5.19,8.126-5.19" transform="translate(-9.337 -4.153)" fill="#fff"/>
  </g>
</svg>
