<svg xmlns="http://www.w3.org/2000/svg" width="52.181" height="44" viewBox="0 0 52.181 44">
  <path id="Path_827" data-name="Path 827" d="M148.656,80.727l-1.159-.648-6.534,4.576a20.575,20.575,0,1,1-1.486-2.2l-3.125,2.2a16.634,16.634,0,1,0,1.474,2.2l-1.5,1.053a14.925,14.925,0,1,1-1.465-2.2l-3.127,2.2a11.042,11.042,0,1,0,1.44,2.213l-1.52,1.065a9.275,9.275,0,1,1-1.425-2.219l-3.141,2.209a5.4,5.4,0,1,0,1.576,3.811,5.32,5.32,0,0,0-.23-1.545l-1.621,1.136a3.455,3.455,0,0,1,.024.411,3.589,3.589,0,1,1-1.277-2.736l-2.829,1.989A.914.914,0,0,0,122.5,95.5l29.957-20.982.49.7,1.976,1.1Zm-3.4-4.831.37,2.233,6.266-4.406-.37-2.233Z" transform="translate(-102.743 -71.489)" fill="#fff" fill-rule="evenodd"/>
</svg>
